<svg xmlns="http://www.w3.org/2000/svg" width="24" height="24" viewBox="0 0 24 24"><defs><style>.a{fill:none;}.b{fill:#fe1d00;}</style></defs><g transform="translate(-152 -87)"><path class="a" d="M0,0H24V24H0Z" transform="translate(152 87)"/><path class="b" d="M21.78,12.257H8.48l5.81-5.81a1.2,1.2,0,0,0,0-1.691,1.186,1.186,0,0,0-1.679,0L4.766,12.6a1.186,1.186,0,0,0,0,1.679l7.846,7.846a1.187,1.187,0,0,0,1.679-1.679l-5.81-5.81h13.3a1.191,1.191,0,1,0,0-2.381Z" transform="translate(150.583 85.592)"/></g></svg>