<!-- Generated by IcoMoon.io -->
<svg version="1.1" xmlns="http://www.w3.org/2000/svg" width="32" height="32" viewBox="0 0 32 32">
<title>arrowRightSlim</title>
<path d="M13.39 8c0.003-0 0.007-0 0.010-0 0.351 0 0.664 0.163 0.868 0.418l0.002 0.002 6 7.34c0.084 0.097 0.135 0.225 0.135 0.365s-0.051 0.268-0.136 0.366l-5.999 7.109c-0.211 0.247-0.522 0.402-0.87 0.402-0.631 0-1.142-0.511-1.142-1.142 0-0.283 0.103-0.542 0.273-0.742l-0.001 0.002 4.79-5.65c0.085-0.099 0.136-0.228 0.136-0.37s-0.052-0.271-0.137-0.371l0.001 0.001-4.8-5.86c-0.162-0.195-0.261-0.449-0.261-0.726 0-0.356 0.163-0.674 0.419-0.883l0.002-0.002c0.192-0.157 0.439-0.255 0.709-0.26l0.001-0z"></path>
</svg>
