<svg xmlns="http://www.w3.org/2000/svg" width="158" height="72" viewBox="0 0 158 72">
  <g id="BANJERCITO" transform="translate(-673 -181)">
    <rect id="Rectángulo_1" data-name="Rectángulo 1" width="158" height="72" transform="translate(673 181)" fill="#aaa7ff" opacity="0"/>
    <g id="banjercito-2" data-name="banjercito" transform="translate(678.733 195.333)">
      <path id="Trazado_50" data-name="Trazado 50" d="M247.359,54.089h1.223c2.015,0,3.4-.867,3.4-2.329,0-1.256-1.025-1.793-2.43-1.793a6.164,6.164,0,0,0-1.433.123l-.76,4ZM245.88,61.64a11.624,11.624,0,0,0,1.4.075c1.991,0,3.8-.826,3.8-2.711,0-1.71-1.433-2.223-3.139-2.223H246.83l-.917,4.858h-.033Zm-.893-14.128a25.023,25.023,0,0,1,4.52-.413,7.933,7.933,0,0,1,4.263.917,3.486,3.486,0,0,1,1.991,3.154,4.421,4.421,0,0,1-3.47,4.131v.075A3.727,3.727,0,0,1,255,59.136a4.818,4.818,0,0,1-2.346,4.131,11.781,11.781,0,0,1-6.486,1.4,23.306,23.306,0,0,1-4.346-.43l3.165-16.755h0Z" transform="translate(-210.07 -42.855)" fill="#10554d"/>
      <path id="Trazado_51" data-name="Trazado 51" d="M364.9,85.144a5.674,5.674,0,0,0-.992-.1c-2.371,0-4.131,2.917-4.131,5.246,0,1.231.487,2.074,1.5,2.074s2.478-1.256,3.01-4.322l.586-2.891h0Zm-1.074,9.915c0-.744.1-1.587.182-2.478h-.075a4.7,4.7,0,0,1-4.188,2.759c-2.248,0-3.776-1.743-3.776-4.346a8.439,8.439,0,0,1,8.932-8.725,14.865,14.865,0,0,1,4.131.611l-1.33,6.552a30.307,30.307,0,0,0-.487,5.626H363.83Z" transform="translate(-309.227 -73.423)" fill="#10554d"/>
      <path id="Trazado_52" data-name="Trazado 52" d="M462.3,94.929l1.587-8.444c.305-1.587.512-2.966.661-4.065h3.305l-.249,2.074h.05a5.246,5.246,0,0,1,4.388-2.355,3.01,3.01,0,0,1,3.189,3.4,15.68,15.68,0,0,1-.206,2.123l-1.433,7.262h-3.652L471.245,88a8.486,8.486,0,0,0,.123-1.4c0-.867-.305-1.486-1.223-1.486-1.2,0-2.6,1.512-3.115,4.272l-1.049,5.552H462.3Z" transform="translate(-401.604 -73.31)" fill="#10554d"/>
      <path id="Trazado_53" data-name="Trazado 53" d="M558.267,46.62a1.651,1.651,0,0,1-1.76-1.793,2.066,2.066,0,0,1,2.031-2.1h.083a1.736,1.736,0,0,1,1.833,1.631q0,.093,0,.186a2.041,2.041,0,0,1-2.007,2.077h-.188Zm1.511,1.561L557.506,60.26a8.9,8.9,0,0,1-1.735,4.454,4.537,4.537,0,0,1-3.42,1.33,7.037,7.037,0,0,1-1.76-.206l.439-2.792a3.836,3.836,0,0,0,.826.075c.826,0,1.554-.437,1.967-2.685l2.248-12.253h3.708Z" transform="translate(-478.289 -39.071)" fill="#10554d"/>
      <path id="Trazado_54" data-name="Trazado 54" d="M636.4,85.926a1.157,1.157,0,0,0-1.243-1.064,1.122,1.122,0,0,0-.112.014,3.1,3.1,0,0,0-2.933,2.58c2.858,0,4.287-.38,4.287-1.512h0Zm1.892,8.345a10.74,10.74,0,0,1-4.643,1c-3.584,0-5.411-2.048-5.411-5.3a7.511,7.511,0,0,1,7.279-7.775c2.529,0,4.338,1.4,4.338,3.734,0,3.2-3.09,4.346-8.089,4.221a2.48,2.48,0,0,0,.38,1.28,2.883,2.883,0,0,0,2.4.975,7.832,7.832,0,0,0,3.495-.826l.257,2.66h0Z" transform="translate(-545.744 -73.36)" fill="#10554d"/>
      <path id="Trazado_55" data-name="Trazado 55" d="M722.568,94.918l1.4-7.435c.355-1.892.512-3.991.636-5.064H727.8c-.075.826-.156,1.653-.231,2.562h.075a4.686,4.686,0,0,1,3.982-2.842,6.232,6.232,0,0,1,.687,0l-.717,3.584h-.586c-2.347,0-3.44,2.1-3.908,4.553l-.867,4.66h-3.677Z" transform="translate(-627.674 -73.301)" fill="#10554d"/>
      <path id="Trazado_56" data-name="Trazado 56" d="M806.49,94.562a8.569,8.569,0,0,1-3.545.669,4.865,4.865,0,0,1-5.264-5.139,7.841,7.841,0,0,1,7.741-7.937h.4a7.5,7.5,0,0,1,2.529.413l-.893,2.842a4.218,4.218,0,0,0-1.653-.305,4.339,4.339,0,0,0-4.239,4.577,2.349,2.349,0,0,0,2.478,2.589,6.288,6.288,0,0,0,2.479-.512v2.818h0Z" transform="translate(-692.942 -73.325)" fill="#10554d"/>
      <path id="Trazado_57" data-name="Trazado 57" d="M884.385,46.62A1.693,1.693,0,0,1,882.624,45a1.564,1.564,0,0,1,0-.169,2.09,2.09,0,0,1,2.081-2.1h.033a1.727,1.727,0,0,1,1.833,1.818,2.041,2.041,0,0,1-2.007,2.077h-.186Zm-4.643,14.048,2.371-12.51h3.668l-2.372,12.508h-3.668Z" transform="translate(-764.22 -39.072)" fill="#10554d"/>
      <path id="Trazado_58" data-name="Trazado 58" d="M942.962,58.163l-.636,3.4h2.652l-.538,2.792H941.8l-.827,4.247a9.011,9.011,0,0,0-.206,1.587.917.917,0,0,0,1.033,1.074,6.869,6.869,0,0,0,1.025-.05l-.437,2.891a7.2,7.2,0,0,1-2.173.287c-2.2,0-3.238-1.147-3.238-2.711a12.388,12.388,0,0,1,.257-2.329L938.2,64.4h-1.587l.512-2.792h1.615l.463-2.355,3.76-1.082Z" transform="translate(-813.633 -52.482)" fill="#10554d"/>
      <path id="Trazado_59" data-name="Trazado 59" d="M1005.16,89.676c0,1.462.717,2.43,1.991,2.43,2.015,0,3.139-2.941,3.139-5.09,0-1.147-.487-2.379-1.967-2.379-2.114,0-3.189,3.1-3.163,5.04Zm8.932-2.724a7.454,7.454,0,0,1-7.437,7.931,4.95,4.95,0,0,1-5.288-5.172,7.5,7.5,0,0,1,7.437-7.907,4.957,4.957,0,0,1,5.288,5.139h0Z" transform="translate(-869.882 -73.016)" fill="#10554d"/>
      <path id="Trazado_60" data-name="Trazado 60" d="M14.584,42.075s-4.858.054-6.126-1.561l.926-4.957,4.776,3.065L18.7,35.384l.926,5.04s-1.1,1.561-5.031,1.653H14.59ZM28.2,27.311,14.154,36.986.106,27.319a14.119,14.119,0,1,0,28.132,1.71,14.219,14.219,0,0,0-.042-1.72ZM13.023,19.123s.52-1.793,2.083-1.736c0,0,3.238.057,2.891,2.95,0,0-1.967-1.5-2.314.826l.95,4.32-2.6,1.852-2.777-2.024,1.79-6.188Zm13.044,2.293a14.112,14.112,0,0,0-23.771,0L13.97,28.6l12.1-7.18Z" transform="translate(0 -14.913)" fill="#10554d"/>
      <path id="Trazado_61" data-name="Trazado 61" d="M10.52,233.215v6.122c0,2.322,1.025,3.305,2.412,3.305,1.537,0,2.478-1.016,2.478-3.305v-6.122h1.355v6.032c0,3.181-1.653,4.487-3.916,4.487s-3.718-1.214-3.718-4.421v-6.1Z" transform="translate(-7.938 -204.549)" fill="#10554d"/>
      <path id="Trazado_62" data-name="Trazado 62" d="M90.117,256.393c0-.768,0-1.4-.057-2.007h1.2l.075,1.231h0a2.735,2.735,0,0,1,2.478-1.4c1.025,0,2.627.611,2.627,3.165v4.444H95.093v-4.3c0-1.2-.446-2.2-1.72-2.2a1.917,1.917,0,0,0-1.809,1.388,1.942,1.942,0,0,0-.09.628v4.469H90.117V256.4Z" transform="translate(-78.228 -222.795)" fill="#10554d"/>
      <path id="Trazado_63" data-name="Trazado 63" d="M193.493,241.993a7.116,7.116,0,0,0,1.124.057c1.38,0,2.652-.5,2.652-2.007s-1.214-2.007-2.669-2.007h-1.107v3.949Zm0-4.957h1.214c1.413,0,2.239-.735,2.239-1.736,0-1.214-.917-1.653-2.272-1.653a5.735,5.735,0,0,0-1.181.09v3.305h0Zm-1.313-4.23a12.946,12.946,0,0,1,2.478-.215,4.28,4.28,0,0,1,2.842.753,2.173,2.173,0,0,1,.826,1.826,2.478,2.478,0,0,1-1.752,2.272h0a2.669,2.669,0,0,1,2.132,2.594,2.792,2.792,0,0,1-.876,2.074,5.2,5.2,0,0,1-3.584.966,15.657,15.657,0,0,1-2.074-.123V232.808Z" transform="translate(-166.946 -203.992)" fill="#10554d"/>
      <path id="Trazado_64" data-name="Trazado 64" d="M261.1,257.971c-1.471,0-3.154.231-3.154,1.653a1.2,1.2,0,0,0,1.1,1.29,1.245,1.245,0,0,0,.172,0,1.851,1.851,0,0,0,1.8-1.223,1.408,1.408,0,0,0,.075-.43v-1.29Zm1.306,2.007a10.472,10.472,0,0,0,.123,1.785H261.3l-.107-.942h-.042a2.768,2.768,0,0,1-2.272,1.107,2.116,2.116,0,0,1-2.266-1.952v-.155c0-1.793,1.594-2.777,4.469-2.759v-.182a1.529,1.529,0,0,0-1.653-1.72,3.7,3.7,0,0,0-1.934.553l-.347-.893a4.609,4.609,0,0,1,2.478-.661c2.272,0,2.825,1.554,2.825,3.04v2.777h-.042Z" transform="translate(-222.915 -222.745)" fill="#10554d"/>
      <path id="Trazado_65" data-name="Trazado 65" d="M322.863,256.393c0-.768,0-1.4-.057-2.007H324l.075,1.231h0a2.735,2.735,0,0,1,2.478-1.4c1.025,0,2.628.611,2.628,3.165v4.444h-1.347v-4.3c0-1.2-.446-2.2-1.72-2.2a1.984,1.984,0,0,0-1.892,2.015v4.469h-1.363V256.4Z" transform="translate(-280.419 -222.795)" fill="#10554d"/>
      <path id="Trazado_66" data-name="Trazado 66" d="M395.649,261.439a4.96,4.96,0,0,1-2.131.446,3.545,3.545,0,0,1-3.7-3.809,3.776,3.776,0,0,1,3.592-3.952,3.68,3.68,0,0,1,.4,0,4.515,4.515,0,0,1,1.875.38l-.305,1.065a3.135,3.135,0,0,0-1.577-.355,2.8,2.8,0,0,0-.05,5.59,3.842,3.842,0,0,0,1.653-.371l.239,1Z" transform="translate(-338.621 -222.71)" fill="#10554d"/>
      <path id="Trazado_67" data-name="Trazado 67" d="M448.841,258.068c0,1.653.933,2.858,2.256,2.858s2.256-1.214,2.256-2.884c0-1.256-.628-2.858-2.223-2.858s-2.293,1.471-2.293,2.884Zm5.891-.075a3.635,3.635,0,0,1-3.307,3.936,3.7,3.7,0,0,1-.394.013,3.536,3.536,0,0,1-3.539-3.532q0-.143.012-.287a3.649,3.649,0,0,1,3.685-3.949A3.584,3.584,0,0,1,454.773,258h-.033Z" transform="translate(-388.733 -222.752)" fill="#10554d"/>
      <path id="Trazado_68" data-name="Trazado 68" d="M553.052,258.675a3.036,3.036,0,0,0,.057.553,2.083,2.083,0,0,0,2.024,1.577c1.433,0,2.255-1.165,2.255-2.867,0-1.486-.786-2.759-2.215-2.759a2.15,2.15,0,0,0-2.038,1.653,2.181,2.181,0,0,0-.09.553v1.273h0Zm-1.334-1.987c0-.95,0-1.72-.057-2.43h1.207l.057,1.273h0a2.926,2.926,0,0,1,2.643-1.446,3.369,3.369,0,0,1,3.154,3.776c0,2.669-1.653,3.991-3.379,3.991a2.6,2.6,0,0,1-2.294-1.165h0v4.029h-1.332v-8.027Z" transform="translate(-479.22 -222.68)" fill="#10554d"/>
      <path id="Trazado_69" data-name="Trazado 69" d="M624.555,257.971c-1.471,0-3.154.231-3.154,1.653a1.2,1.2,0,0,0,1.1,1.29,1.245,1.245,0,0,0,.172,0,1.851,1.851,0,0,0,1.793-1.247,1.409,1.409,0,0,0,.075-.43v-1.264h.009Zm1.306,2.007a10.472,10.472,0,0,0,.123,1.785h-1.231l-.083-.942h-.05a2.768,2.768,0,0,1-2.272,1.107A2.116,2.116,0,0,1,620.054,260c0-.06-.009-.12-.009-.182,0-1.793,1.594-2.777,4.469-2.759v-.182a1.529,1.529,0,0,0-1.653-1.72,3.7,3.7,0,0,0-1.934.553l-.305-.893a4.609,4.609,0,0,1,2.478-.661c2.272,0,2.825,1.554,2.825,3.04v2.777h-.069Z" transform="translate(-538.635 -222.745)" fill="#10554d"/>
      <path id="Trazado_70" data-name="Trazado 70" d="M686.305,256.491c0-.876,0-1.653-.057-2.322h1.181l.05,1.462h.057a2.23,2.23,0,0,1,2.057-1.653,1.475,1.475,0,0,1,.38.05V255.3a2.007,2.007,0,0,0-.463-.05,1.892,1.892,0,0,0-1.809,1.734,3.773,3.773,0,0,0-.057.628v3.958h-1.339v-5.081Z" transform="translate(-596.14 -222.587)" fill="#10554d"/>
      <path id="Trazado_71" data-name="Trazado 71" d="M730.258,257.971c-1.471,0-3.154.231-3.154,1.653a1.2,1.2,0,0,0,1.1,1.29,1.244,1.244,0,0,0,.172,0,1.85,1.85,0,0,0,1.793-1.247,1.409,1.409,0,0,0,.075-.43v-1.264h.009Zm1.306,2.007a10.459,10.459,0,0,0,.123,1.785h-1.223l-.108-.933h-.05a2.768,2.768,0,0,1-2.239,1.1,2.116,2.116,0,0,1-2.293-1.917c0-.063-.009-.126-.009-.191,0-1.793,1.6-2.777,4.469-2.759v-.182a1.529,1.529,0,0,0-1.653-1.72,3.7,3.7,0,0,0-1.934.553l-.305-.893a4.607,4.607,0,0,1,2.478-.661c2.272,0,2.825,1.554,2.825,3.04v2.777h-.083Z" transform="translate(-630.466 -222.744)" fill="#10554d"/>
      <path id="Trazado_72" data-name="Trazado 72" d="M819.2,241.9v1.785h1.949v1.025h-1.934v4.014c0,.917.264,1.446,1.016,1.446a2.521,2.521,0,0,0,.786-.09l.057,1.016a3.316,3.316,0,0,1-1.2.2,1.885,1.885,0,0,1-1.462-.586,2.752,2.752,0,0,1-.52-1.934v-4.057h-1.147v-1.025h1.1V242.32l1.322-.413h.033Z" transform="translate(-709.504 -212.092)" fill="#10554d"/>
      <path id="Trazado_73" data-name="Trazado 73" d="M864.148,258.068c0,1.653.933,2.858,2.256,2.858s2.256-1.214,2.256-2.884c0-1.256-.628-2.858-2.223-2.858s-2.293,1.471-2.293,2.884Zm5.9-.075a3.635,3.635,0,0,1-3.307,3.936,3.711,3.711,0,0,1-.394.013,3.536,3.536,0,0,1-3.565-3.508,2.909,2.909,0,0,1,.011-.317,3.649,3.649,0,0,1,3.685-3.949,3.583,3.583,0,0,1,3.583,3.826h-.009Z" transform="translate(-749.492 -222.751)" fill="#10554d"/>
      <path id="Trazado_74" data-name="Trazado 74" d="M938.614,235.429a2.4,2.4,0,0,0-.057-.573,1.982,1.982,0,0,0-1.949-1.577c-1.4,0-2.223,1.231-2.223,2.867,0,1.5.735,2.752,2.2,2.752a2.033,2.033,0,0,0,1.982-1.653,2.349,2.349,0,0,0,.057-.586v-1.24h-.009Zm1.355-6.493v8.973c0,.661,0,1.413.057,1.917h-1.214l-.057-1.29h0a2.751,2.751,0,0,1-2.536,1.479,3.391,3.391,0,0,1-3.181-3.776c0-2.478,1.519-3.991,3.3-3.991a2.479,2.479,0,0,1,2.239,1.132h0v-4.428h1.355Z" transform="translate(-810.524 -200.832)" fill="#10554d"/>
      <path id="Trazado_75" data-name="Trazado 75" d="M1005.866,258.071c0,1.653.933,2.858,2.256,2.858s2.256-1.214,2.256-2.884c0-1.256-.628-2.858-2.223-2.858s-2.293,1.471-2.293,2.884Zm5.891-.075a3.628,3.628,0,0,1-3.7,3.949,3.536,3.536,0,0,1-3.572-3.5q0-.164.012-.325a3.65,3.65,0,0,1,3.684-3.949,3.584,3.584,0,0,1,3.583,3.824Z" transform="translate(-872.587 -222.754)" fill="#10554d"/>
      <path id="Trazado_76" data-name="Trazado 76" d="M1075.07,260.393a3.545,3.545,0,0,0,1.785.538c.983,0,1.446-.487,1.446-1.107s-.38-1-1.38-1.363c-1.339-.479-1.967-1.214-1.967-2.107a2.293,2.293,0,0,1,2.561-2.182,3.711,3.711,0,0,1,1.826.463l-.338.983a2.893,2.893,0,0,0-1.521-.43,1.082,1.082,0,0,0-1.236.9c0,.037-.01.076-.011.113,0,.612.446.892,1.413,1.256,1.29.487,1.949,1.132,1.949,2.239,0,1.306-1.016,2.239-2.776,2.239a4.234,4.234,0,0,1-2.09-.52l.338-1.023Z" transform="translate(-933.614 -222.754)" fill="#10554d"/>
    </g>
  </g>
</svg>
