<svg xmlns="http://www.w3.org/2000/svg" width="158" height="72" viewBox="0 0 158 72">
  <g id="BANREGIO" transform="translate(-933 -181)">
    <rect id="Rectángulo_1" data-name="Rectángulo 1" width="158" height="72" transform="translate(933 181)" fill="#aaa7ff" opacity="0"/>
    <g id="Grupo_6" data-name="Grupo 6" transform="translate(954.6 205.481)">
      <path id="Trazado_87" data-name="Trazado 87" d="M25.026,57.929a3.112,3.112,0,0,0,1.812-2.955,3.764,3.764,0,0,0-2.111-3.4,7.183,7.183,0,0,0-3.262-.511H13.95v15.3h7.1c2.424,0,4.085-.252,5.328-1.64a4.562,4.562,0,0,0,1.138-3.09,3.786,3.786,0,0,0-2.485-3.7m-6.6-3.4h2.151c1.233,0,1.817.312,1.817,1.212s-.564,1.273-1.8,1.273H18.43V54.545Zm2.58,8.279H18.43v-2.88h2.546c1.308,0,1.954.449,1.954,1.45s-.647,1.45-1.92,1.45m86.468,3.538h4.936V51.06h-4.936v15.3ZM84.9,60.849h4.9v-4.3H84.9V55.4h7.278V51.06H79.967v15.3H92.181v-4.31H84.9Zm36.647-9.792c-4.7,0-8.516,3.4-8.516,7.652s3.813,7.652,8.516,7.652,8.516-3.4,8.516-7.652-3.744-7.652-8.516-7.652m0,10.989a3.357,3.357,0,1,1,3.711-3.336,3.539,3.539,0,0,1-3.711,3.336M54.974,58.977l-5.481-7.92H44.559v15.3h4.936v-7.92l5.481,7.92h4.936V51.06H54.974Zm-22.215-7.92-6.18,15.3H31.8l1.362-4.221h4.65l1.26,4.221h5.106l-5.734-15.3Zm1.824,6.808,1.028-3.132.933,3.132h-1.96Zm57.514.811c0,4.228,3.813,7.652,8.516,7.652h6.25V57.241h-6.69v3.609h2.458v1.178h-2.043a3.357,3.357,0,1,1,0-6.672h6.25v-4.3h-6.25c-4.7,0-8.516,3.4-8.516,7.652m-18.177.612a.634.634,0,0,1,.288-.576,7.2,7.2,0,0,0,3.689-5.9c0-4-3.813-7.243-8.516-7.243H60.534V66.357h5.558V50.5h3.262a2.928,2.928,0,0,1,3.07,2.723c0,1.518-1.4,2.471-3.07,2.723A2.778,2.778,0,0,0,67,58.624a3.4,3.4,0,0,0,.729,2.042l7.488,9.307h7.114l-8.3-10.224a.72.72,0,0,1-.137-.422" transform="translate(-13.95 -45.601)" fill="#8b254f"/>
    </g>
  </g>
</svg>
