<svg xmlns="http://www.w3.org/2000/svg" width="158" height="72" viewBox="0 0 158 72">
  <g id="BAN-AZTECA-HORIZONTAL" transform="translate(-413 -181)">
    <rect id="Rectángulo_1" data-name="Rectángulo 1" width="158" height="72" transform="translate(413 181)" fill="#aaa7ff" opacity="0"/>
    <g id="lPromociones-" transform="translate(418.722 208.182)">
      <g id="Android-Copy" transform="translate(0 0)">
        <g id="BA_horizontal" transform="translate(0 0)">
          <path id="Path" d="M23.485,13.658a4.618,4.618,0,1,1-1.339-3.326,4.618,4.618,0,0,1,1.339,3.326" transform="translate(-4.539 -3.24)" fill="#b13034"/>
          <path id="Path-2" data-name="Path" d="M20.373.543a33.543,33.543,0,0,0-6.438,1.773C8.243,4.716,4.251,8.9,4.584,12.4c.222,2.328,1.478,3.841,4.472,4.358C3.66,17.347.33,15.685.044,12.434-.363,8.521,4.924,3.756,11.865,1.577a27.4,27.4,0,0,1,3.074-.7A38.209,38.209,0,0,1,20.376.543" transform="translate(-0.022 -0.541)" fill="#006648"/>
          <path id="Path-3" data-name="Path" d="M12.129.543a33.543,33.543,0,0,1,6.438,1.773c5.693,2.4,9.684,6.581,9.351,10.083-.222,2.328-1.478,3.841-4.472,4.358,5.4.591,8.727-1.072,9.013-4.322.406-3.916-4.879-8.68-11.827-10.859a27.405,27.405,0,0,0-3.069-.7A38.209,38.209,0,0,0,12.126.543" transform="translate(-3.901 -0.541)" fill="#006648"/>
          <path id="Shape" d="M52.937,11.4h1.22c1.368,0,2.18-.554,2.18-1.4S55.525,8.85,54.3,8.85h-.85Zm-1.072,5.1h.85c1.664,0,2.773-.481,2.773-1.662s-.777-1.256-2.255-1.256h-.777ZM50.682,6.522h5.471c1.256,0,3.434.481,3.434,2.807a3.272,3.272,0,0,1-3.216,3.139h0a2.412,2.412,0,0,1,2.4,2.363c0,2.585-2.255,3.841-5.063,3.841l-5.58.074Z" transform="translate(-15.194 -2.455)" fill="#73757b"/>
          <path id="Shape-2" data-name="Shape" d="M68.84,18.293A2.372,2.372,0,0,0,71.2,16.114h-.85c-1.478-.037-2.587.481-2.587,1.288a1,1,0,0,0,1.072.923m2.107.628H70.91a3.539,3.539,0,0,1-3.1,1.478c-1.959,0-3.032-.887-3.032-2.66S67.029,14.41,69.8,14.41c.628,0,1.288.074,1.7.11a1.4,1.4,0,0,0,.037-.369c0-.665-.628-1.182-1.664-1.182a6.139,6.139,0,0,0-2.994.7l.333-2.289a9.468,9.468,0,0,1,3.363-.516c2.18,0,3.954.85,3.954,3.1,0,1.441-.813,3.509-1.145,6.242H70.8Z" transform="translate(-20.446 -3.848)" fill="#73757b"/>
          <path id="Path-4" data-name="Path" d="M81.117,13.4a23.327,23.327,0,0,0,.369-2.4h2.957l-.259,1.511h.037a4.292,4.292,0,0,1,3.548-1.7,2.9,2.9,0,0,1,2.846,3.139,9.156,9.156,0,0,1-.259,1.957l-.85,4.248H86.255l.887-4.285a8.677,8.677,0,0,0,.185-1.366,1.037,1.037,0,0,0-1.22-1.072,3.074,3.074,0,0,0-2.365,2.512l-.887,4.21H79.675Z" transform="translate(-25.144 -3.833)" fill="#73757b"/>
          <path id="Path-5" data-name="Path" d="M103.993,20.055a9.468,9.468,0,0,1-2.7.332,4.075,4.075,0,0,1-4.325-4.173,5.471,5.471,0,0,1,5.914-5.392,8.913,8.913,0,0,1,2.883.591l-.7,2.216a4.956,4.956,0,0,0-2.033-.481,2.668,2.668,0,0,0-2.81,2.919,2.014,2.014,0,0,0,2.18,1.994,4.549,4.549,0,0,0,2.033-.406Z" transform="translate(-30.607 -3.836)" fill="#73757b"/>
          <path id="Shape-3" data-name="Shape" d="M114.991,13.032c-1.515,0-2.476,1.625-2.476,3.1s.665,2.069,1.737,2.032a3,3,0,0,0,2.4-3.29c0-.96-.406-1.847-1.664-1.847m-.961,7.351c-3.4,0-4.768-1.884-4.768-4.173,0-3.213,2.329-5.392,5.914-5.392s4.768,1.773,4.768,4.1c0,3.8-2.514,5.467-5.914,5.467" transform="translate(-34.476 -3.832)" fill="#73757b"/>
          <path id="Shape-4" data-name="Shape" d="M138.238,9.067H138.2l-2.588,4.8h3.179Zm-1.627-2.548h4.1l2.033,12.262h-3.326l-.333-2.622h-4.768l-1.442,2.622h-3.548Z" transform="translate(-40.792 -2.457)" fill="#73757b"/>
          <path id="Path-6" data-name="Path" d="M149.95,17.883l4.99-4.469h-3.919l.481-2.328h7.763l-.481,2.4-5.027,4.469h4.18l-.481,2.289h-7.947Z" transform="translate(-47.173 -3.919)" fill="#73757b"/>
          <path id="Path-7" data-name="Path" d="M164.379,9.746h1.811l.444-1.957L169.96,6.9l-.628,2.844h2.18l-.406,2.216h-2.289l-.555,2.548A12.509,12.509,0,0,0,168,16.1a.961.961,0,0,0,1.034,1.034,3.551,3.551,0,0,0,1.034-.259l-.369,2.069a12.094,12.094,0,0,1-1.959.185,2.537,2.537,0,0,1-2.883-2.7,7.529,7.529,0,0,1,.259-1.884l.555-2.585h-1.7Z" transform="translate(-51.749 -2.578)" fill="#73757b"/>
          <path id="Shape-5" data-name="Shape" d="M181.677,14.739c0-1-.406-1.81-1.552-1.81a2.4,2.4,0,0,0-2.365,1.81Zm.85,5.135a11.836,11.836,0,0,1-3.216.516c-3.067,0-4.731-1.884-4.731-4.173a5.19,5.19,0,0,1,5.508-5.392,3.75,3.75,0,0,1,4.213,3.989,10.736,10.736,0,0,1-.222,1.7h-6.505c.037,1,.555,1.773,2.476,1.773a7.212,7.212,0,0,0,2.846-.628Z" transform="translate(-54.948 -3.84)" fill="#73757b"/>
          <path id="Path-8" data-name="Path" d="M197.047,20.054a9.468,9.468,0,0,1-2.7.332,4.1,4.1,0,0,1-4.325-4.173,5.492,5.492,0,0,1,5.914-5.392,8.727,8.727,0,0,1,2.883.591l-.7,2.216a4.844,4.844,0,0,0-2.033-.481,2.668,2.668,0,0,0-2.81,2.919,2.026,2.026,0,0,0,2.218,1.994,4.771,4.771,0,0,0,2.033-.406Z" transform="translate(-59.895 -3.836)" fill="#73757b"/>
          <path id="Shape-6" data-name="Shape" d="M206.218,18.293a2.382,2.382,0,0,0,2.4-2.179h-.85c-1.515-.037-2.624.481-2.624,1.288a1,1,0,0,0,1.072.923m2.107.628h-.037a3.517,3.517,0,0,1-3.067,1.478c-1.959,0-3.067-.887-3.067-2.66s2.255-3.361,5.064-3.361c.628,0,1.256.074,1.7.11a1.406,1.406,0,0,0,.037-.369c0-.665-.665-1.182-1.7-1.182a5.917,5.917,0,0,0-2.957.7l.3-2.289a9.764,9.764,0,0,1,3.363-.516c2.18,0,3.992.85,3.992,3.1,0,1.441-.813,3.509-1.183,6.242h-2.588Z" transform="translate(-63.78 -3.849)" fill="#73757b"/>
        </g>
      </g>
    </g>
  </g>
</svg>
