<svg xmlns="http://www.w3.org/2000/svg" width="48" height="48" viewBox="0 0 48 48">
    <g fill="none" fill-rule="evenodd" transform="translate(3 12)">
        <path fill="#006343" d="M12.459.048S21.086-.687 30.06 3.6c9.69 4.643 11.591 11.028 11.591 11.028s.785 2.164 0 4.37c-.637 1.797-1.847 3.172-4.173 4.125-2.327.939-5.651 1.02-8.602.72 0 0 3.417-.38 5.145-2.653 1.675-2.192 1.356-5.065 1.356-5.065s-.199-2.342-1.94-4.82c-1.902-2.722-5.291-5.16-5.291-5.16S25.938 4.61 23.785 3.52c-2.06-1.035-4.958-1.961-6.58-2.41C15.543.62 14.599.388 12.459.048"/>
        <path fill="#006343" d="M29.541.048S20.914-.687 11.94 3.6C2.249 8.244.349 14.629.349 14.629s-.785 2.164 0 4.37c.638 1.797 1.847 3.172 4.174 4.125 2.326.939 5.649 1.02 8.601.72 0 0-3.417-.38-5.145-2.653-1.675-2.192-1.356-5.065-1.356-5.065s.199-2.342 1.941-4.82c1.901-2.722 5.291-5.16 5.291-5.16s2.207-1.537 4.36-2.626c2.06-1.035 4.959-1.961 6.58-2.41C26.457.62 27.4.388 29.541.048"/>
        <circle cx="21" cy="16" r="7" fill="#CC2B30"/>
    </g>
</svg>
