<svg xmlns="http://www.w3.org/2000/svg" width="158" height="72" viewBox="0 0 158 72">
  <g id="BBVA" transform="translate(-1063 -181)">
    <rect id="Rectángulo_1" data-name="Rectángulo 1" width="158" height="72" transform="translate(1063 181)" fill="#aaa7ff" opacity="0"/>
    <g id="lPromociones-" transform="translate(1093.236 202.598)">
      <g id="Android-Copy" transform="translate(0 0)">
        <g id="BBVA_2019" transform="translate(0 0)">
          <path id="Shape" d="M17.543,15.489a8.813,8.813,0,0,1,1.106.477,6.015,6.015,0,0,1,1.9,1.744,7.26,7.26,0,0,1,.948,3.8q0,7.608-9.167,7.606H.477A.42.42,0,0,1,0,28.642V4.236A.42.42,0,0,1,.477,3.76H12.961a7.8,7.8,0,0,1,5.373,1.823,6.155,6.155,0,0,1,2.055,4.834,6.015,6.015,0,0,1-.789,3.09,4.938,4.938,0,0,1-2.056,1.981Zm-5.373,9.982a7.073,7.073,0,0,0,3.95-.864A3.4,3.4,0,0,0,17.385,21.6a3.4,3.4,0,0,0-1.264-3.011,7.079,7.079,0,0,0-3.95-.864H4.743c-.423,0-.634.158-.634.477v6.808c0,.317.21.477.634.477h7.428ZM4.743,7.406a.42.42,0,0,0-.475.477v5.7a.42.42,0,0,0,.475.477h7.269q4.107,0,4.108-3.328T12.012,7.406Zm38.406,8.083a3.993,3.993,0,0,1,.948.477,4.4,4.4,0,0,1,1.9,1.744,6.48,6.48,0,0,1,1.106,3.8q0,7.608-9.167,7.606H26.08a.42.42,0,0,1-.475-.477V4.236a.42.42,0,0,1,.475-.477H38.566a7.888,7.888,0,0,1,5.3,1.823A6.048,6.048,0,0,1,46,10.417a6.015,6.015,0,0,1-.789,3.09,4.969,4.969,0,0,1-2.058,1.981ZM30.189,7.406a.42.42,0,0,0-.475.477v5.7a.42.42,0,0,0,.475.477h7.428q4.107,0,4.108-3.328T37.617,7.406Zm7.586,18.065a7.073,7.073,0,0,0,3.95-.864A3.4,3.4,0,0,0,42.99,21.6a3.4,3.4,0,0,0-1.264-3.011,7.079,7.079,0,0,0-3.95-.864H30.188a.42.42,0,0,0-.475.477v6.808a.42.42,0,0,0,.475.477h7.586ZM69.7,4.078c.1-.21.21-.317.317-.317h4.108a.468.468,0,0,1,.317.158.2.2,0,0,1,0,.317L61.325,28.958a.576.576,0,0,1-.792,0L47.416,4.236a.256.256,0,0,1-.079-.317c.052-.1.183-.158.4-.158h3.95a.51.51,0,0,1,.475.317l8.375,15.849c0,.107.1.158.317.158a.644.644,0,0,0,.475-.158ZM74.449,25.15a.505.505,0,0,1-.475.317H69.859a.251.251,0,0,1-.238-.158.675.675,0,0,1-.079-.317L82.657.275a.647.647,0,0,1,.475-.158.655.655,0,0,1,.475.158L96.726,25a.708.708,0,0,1-.079.317.256.256,0,0,1-.238.158h-4.1a.5.5,0,0,1-.475-.317L83.606,9.31a.515.515,0,0,0-.95,0Z" transform="translate(0.003 -0.115)" fill="#004580"/>
        </g>
      </g>
    </g>
  </g>
</svg>
