<svg xmlns="http://www.w3.org/2000/svg" width="24" height="24" viewBox="0 0 24 24">
  <g id="Grupo_1767" data-name="Grupo 1767" transform="translate(8164 8162)">
    <rect id="Rect치ngulo_92" data-name="Rect치ngulo 92" width="24" height="24" transform="translate(-8164 -8162)"  opacity="0"/>
    <path id="Uni칩n_1" data-name="Uni칩n 1" d="M14.01,18A1.995,1.995,0,1,1,16,20,2,2,0,0,1,14.01,18Zm-10,0A1.995,1.995,0,1,1,6,20,2,2,0,0,1,4.01,18ZM6,15a2,2,0,0,1-1.75-2.97L5.6,9.59,2,2H1A1,1,0,0,1,1,0H3.27L4.21,2h14.8a1,1,0,0,1,.87,1.481L16.3,9.97A1.99,1.99,0,0,1,14.55,11H7.1L6,13H18v2ZM7.53,9h7.02L17.31,4H5.16Z" transform="translate(-8162 -8160)"/>
  </g>
</svg>
