<?xml version="1.0" encoding="UTF-8"?>
<svg xmlns="http://www.w3.org/2000/svg" xmlns:xlink="http://www.w3.org/1999/xlink" width="100" height="100" viewBox="0 0 100 100" version="1.1">
<g id="surface1">
<path style=" stroke:none;fill-rule:evenodd;fill:rgb(40%,40%,40%);fill-opacity:1;" d="M 50 6.25 C 25.835938 6.25 6.25 25.835938 6.25 50 C 6.25 74.164062 25.835938 93.75 50 93.75 C 74.164062 93.75 93.75 74.164062 93.75 50 C 93.75 25.835938 74.164062 6.25 50 6.25 "/>
<path style=" stroke:none;fill-rule:evenodd;fill:rgb(100%,86.666667%,0%);fill-opacity:1;" d="M 50 16.667969 C 31.589844 16.667969 16.667969 31.589844 16.667969 50 C 16.667969 68.410156 31.589844 83.332031 50 83.332031 C 68.410156 83.332031 83.332031 68.410156 83.332031 50 C 83.332031 31.589844 68.410156 16.667969 50 16.667969 "/>
<path style=" stroke:none;fill-rule:evenodd;fill:rgb(25.882353%,25.882353%,25.882353%);fill-opacity:1;" d="M 47.828125 30.464844 L 47.828125 24.917969 C 47.828125 23.808594 48.796875 22.914062 49.996094 22.914062 L 50.003906 22.914062 C 51.199219 22.914062 52.171875 23.808594 52.171875 24.917969 L 52.171875 30.464844 Z M 47.828125 75.390625 L 47.828125 69.550781 L 52.171875 69.550781 L 52.171875 75.390625 C 52.171875 76.335938 51.199219 77.105469 50.003906 77.105469 L 49.996094 77.105469 C 48.800781 77.105469 47.828125 76.339844 47.828125 75.390625 "/>
<path style=" stroke:none;fill-rule:nonzero;fill:rgb(25.882353%,25.882353%,25.882353%);fill-opacity:1;" d="M 61.597656 36.894531 C 62.105469 38.117188 61.523438 39.519531 60.300781 40.027344 C 59.078125 40.53125 57.675781 39.953125 57.171875 38.730469 C 56.132812 36.214844 53.960938 34.679688 49.769531 34.679688 C 44.71875 34.679688 42.820312 36.421875 42.378906 38.980469 C 42.300781 39.472656 42.273438 39.96875 42.304688 40.464844 C 42.523438 43.085938 44.660156 45.726562 50.652344 47.679688 L 50.972656 47.816406 C 58.472656 50.253906 61.953125 54.402344 62.445312 58.898438 C 62.542969 59.796875 62.503906 60.894531 62.347656 61.808594 C 61.53125 66.601562 57.714844 70.113281 50.230469 70.113281 C 43.542969 70.113281 39.601562 66.925781 38.074219 62.222656 C 37.667969 60.964844 38.355469 59.613281 39.613281 59.203125 C 40.875 58.796875 42.226562 59.484375 42.632812 60.742188 C 43.546875 63.554688 45.726562 65.320312 50.230469 65.320312 C 55.289062 65.320312 57.183594 63.574219 57.621094 61.003906 C 57.707031 60.515625 57.730469 59.863281 57.683594 59.425781 C 57.398438 56.828125 55.226562 54.238281 49.351562 52.320312 L 49.027344 52.1875 C 41.359375 49.691406 37.914062 45.425781 37.53125 40.863281 C 37.46875 39.964844 37.507812 39.0625 37.65625 38.171875 C 38.480469 33.390625 42.296875 29.886719 49.769531 29.886719 C 55.953125 29.886719 59.835938 32.636719 61.597656 36.894531 Z M 61.597656 36.894531 "/>
</g>
</svg>
