<svg xmlns="http://www.w3.org/2000/svg" xmlns:xlink="http://www.w3.org/1999/xlink" width="100" height="100" viewBox="0 0 100 100">
  <defs>
    <clipPath id="clip-path">
      <path id="Trazado_953" data-name="Trazado 953" d="M55.16-24.68A11.16,11.16,0,0,0,66.32-35.84,11.16,11.16,0,0,0,55.16-47,11.16,11.16,0,0,0,44-35.84,11.16,11.16,0,0,0,55.16-24.68Z" transform="translate(-44 47)" fill="none" clip-rule="evenodd"/>
    </clipPath>
    <clipPath id="clip-path-2">
      <path id="Trazado_952" data-name="Trazado 952" d="M0,1533.2H1339.224V-62H0Z" transform="translate(0 62)" fill="none"/>
    </clipPath>
    <clipPath id="clip-path-3">
      <path id="Trazado_950" data-name="Trazado 950" d="M64.035-36.36a9.289,9.289,0,0,1-.094,3.56,4.476,4.476,0,0,1-3.3,1.65,4.017,4.017,0,0,1-4.348-3.342,3.363,3.363,0,0,0-2.209.333,2.453,2.453,0,0,0-.982,2.986,2.443,2.443,0,0,0,1.489,1.663l-.808,2.455a8.472,8.472,0,0,1-2.908-1.865,4.9,4.9,0,0,1,.28-3.806c1-1.8,2.506-2.978,4.941-2.259a3.722,3.722,0,0,0,.825-2.158,2.379,2.379,0,0,0-1.988-2.38,2.336,2.336,0,0,0-2.126.514l-1.633-1.956a8.463,8.463,0,0,1,3-1.695A4.5,4.5,0,0,1,57.2-40.5c1,1.8,1.219,3.75-.592,5.59a3.628,3.628,0,0,0,1.384,1.836,2.238,2.238,0,0,0,2.969-.607,2.584,2.584,0,0,0,.636-2.177Zm-9.96-1.114s-3.683-1.023-3.734,2.535l-1.192,1.321-1.461-.866.836-.974.373-.434a3.855,3.855,0,0,1,.4-1.6,2.605,2.605,0,0,1,2.892-1.226A2.869,2.869,0,0,1,54.075-37.474Zm5.631,1.99S62.4-38.3,59.47-40.125l-.5-1.738,1.45-.887.392,1.242.173.553A3.648,3.648,0,0,1,62.11-39.8a2.853,2.853,0,0,1-.429,3.227A2.82,2.82,0,0,1,59.706-35.484Zm-.512,6.158,1.693.416.012,1.752-1.227-.267-.547-.12a3.469,3.469,0,0,1-1.524.44,2.654,2.654,0,0,1-2.464-2,3.1,3.1,0,0,1,.085-2.326S56.215-27.594,59.194-29.326Z" transform="translate(-47.687 42.75)" fill="none" clip-rule="evenodd"/>
    </clipPath>
    <clipPath id="clip-path-4">
      <path id="Trazado_949" data-name="Trazado 949" d="M46-26.167H64.833V-45H46Z" transform="translate(-46 45)" fill="none"/>
    </clipPath>
  </defs>
  <g id="Grupo_9059" data-name="Grupo 9059" transform="translate(-19581 6693)">
    <circle id="Elipse_87" data-name="Elipse 87" cx="50" cy="50" r="50" transform="translate(19581 -6693)" fill="#fedd00"/>
    <g id="Grupo_9002" data-name="Grupo 9002" transform="translate(-569.001 -915)">
      <g id="Grupo_9001" data-name="Grupo 9001" transform="translate(20181 -5762)">
        <path id="Trazado_3990" data-name="Trazado 3990" d="M146.547,68.532H119.085a5.32,5.32,0,0,1-5.3-5.3V5.3a5.32,5.32,0,0,1,5.3-5.3h27.463a5.32,5.32,0,0,1,5.3,5.3V63.227A5.322,5.322,0,0,1,146.547,68.532Z" transform="translate(-113.78 0)"/>
        <rect id="Rectángulo_3502" data-name="Rectángulo 3502" width="33.05" height="54.044" transform="translate(2.511 5.407)" fill="#fff"/>
        <g id="Grupo_9000" data-name="Grupo 9000" transform="translate(13.526 2.164)">
          <path id="Trazado_3991" data-name="Trazado 3991" d="M245.688,17.273h-6.763a.554.554,0,0,1-.553-.553h0a.554.554,0,0,1,.553-.553h6.763a.554.554,0,0,1,.553.553h0A.555.555,0,0,1,245.688,17.273Z" transform="translate(-235.222 -16.168)" fill="#ccc"/>
          <ellipse id="Elipse_85" data-name="Elipse 85" cx="0.553" cy="0.553" rx="0.553" ry="0.553" transform="translate(0 0)" fill="#ccc"/>
          <path id="Trazado_3992" data-name="Trazado 3992" d="M239.089,463.754a2.613,2.613,0,1,1,2.613-2.613A2.616,2.616,0,0,1,239.089,463.754Zm0-4.691a2.077,2.077,0,1,0,2.077,2.077A2.079,2.079,0,0,0,239.089,459.062Z" transform="translate(-233.579 -399.318)" fill="#ccc"/>
        </g>
      </g>
      <g id="Grupo_1400" data-name="Grupo 1400" transform="translate(20189.254 -5741.695)">
        <g id="Grupo_830" data-name="Grupo 830" transform="translate(0)" clip-path="url(#clip-path)">
          <g id="Grupo_829" data-name="Grupo 829" transform="translate(-30.691 -10.463)" clip-path="url(#clip-path-2)">
            <path id="Trazado_951" data-name="Trazado 951" d="M39-52H68.3v29.3H39Z" transform="translate(-11.797 58.975)" fill="#ffdc20"/>
          </g>
        </g>
        <g id="Grupo_828" data-name="Grupo 828" transform="translate(2.79 3.488)" clip-path="url(#clip-path-3)">
          <g id="Grupo_827" data-name="Grupo 827" transform="translate(-1.177 -1.569)" clip-path="url(#clip-path-4)">
            <path id="Trazado_948" data-name="Trazado 948" d="M42.687-47.75H66.141v22.669H42.687Z" transform="translate(-44.998 45.832)" fill="#fd1d00"/>
          </g>
        </g>
      </g>
    </g>
  </g>
</svg>
