<svg xmlns="http://www.w3.org/2000/svg" width="158" height="72" viewBox="0 0 158 72">
  <g id="CITIBANAMEX" transform="translate(-413 -251)">
    <rect id="Rectángulo_1" data-name="Rectángulo 1" width="158" height="72" transform="translate(413 251)" fill="#aaa7ff" opacity="0"/>
    <g id="Grupo_29" data-name="Grupo 29" transform="translate(420.2 275.442)">
      <path id="Trazado_246" data-name="Trazado 246" d="M67.3,278.455a7.268,7.268,0,0,0-2.1,2.51c.864,0,1.761.049,2.631,0,.821-.507,1.449-1.279,2.292-1.738a9.792,9.792,0,0,1,10.426.1c.8.432,1.375,1.182,2.148,1.642.845.072,1.714,0,2.557.024l-.144-.458a12.116,12.116,0,0,0-6.274-4.464,15.393,15.393,0,0,0-5.26-.386,11.831,11.831,0,0,0-6.274,2.775" transform="translate(-54.375 -275.587)" fill="#fff"/>
      <path id="Trazado_248" data-name="Trazado 248" d="M93.659,291.253c0,.821,0,1.665.024,2.485a6.35,6.35,0,0,1-2.028-.024,9.013,9.013,0,0,0-.121,2.413c.72,0,1.449,0,2.172.024-.024,2.317-.024,4.657-.024,7A3.2,3.2,0,0,0,95.2,306.1a3.949,3.949,0,0,0,3.6-.217c.193-.8.386-1.617.576-2.413a3.269,3.269,0,0,1-2.654.554,1.514,1.514,0,0,1-.531-1.4v-6.492h2.557c0-.772,0-1.545.024-2.317-.864,0-1.714,0-2.582-.025-.024-1.3,0-2.606,0-3.888-.864.432-1.714.893-2.534,1.352" transform="translate(-74.341 -286.406)" fill="#fff"/>
      <path id="Trazado_252" data-name="Trazado 252" d="M21.189,308.156a7.134,7.134,0,0,0,.265,7.144,6.606,6.606,0,0,0,5.937,2.678,5.828,5.828,0,0,0,3.91-2.124c-.432-.6-.917-1.182-1.4-1.761a4.232,4.232,0,0,1-4.585,1.135,4.139,4.139,0,0,1-1.931-5.646,3.744,3.744,0,0,1,4.488-1.907,5.184,5.184,0,0,1,2,1.279c.432-.6,1.152-1.11,1.351-1.835-2.51-3.257-8.181-2.461-10.04,1.038" transform="translate(-20.355 -297.905)" fill="#fff"/>
      <path id="Trazado_254" data-name="Trazado 254" d="M264.61,306.233c0-.242,0-.749.024-.989a17.758,17.758,0,0,0-2.534,0c.024,4.151,0,8.277,0,12.429h2.51c.024-2.461,0-4.948,0-7.409a3.024,3.024,0,0,1,1.4-2.775,2.893,2.893,0,0,1,2.8.193,4.176,4.176,0,0,1,1.008,3.089c.025,2.292,0,4.608,0,6.9.821,0,1.617,0,2.438-.024-.024-2.631,0-5.26-.024-7.92a4.388,4.388,0,0,0-7.632-3.5" transform="translate(-203.758 -297.814)" fill="#fff"/>
      <path id="Trazado_256" data-name="Trazado 256" d="M365.31,306.245v-1.008c-.845,0-1.665,0-2.51.024v12.4h2.51v-6.9a4.806,4.806,0,0,1,.531-2.534,2.428,2.428,0,0,1,3.548-.458,4.115,4.115,0,0,1,.749,2.75v7.167h2.51v-7.144a3.8,3.8,0,0,1,.821-2.775,2.592,2.592,0,0,1,2.7-.288,3.141,3.141,0,0,1,1.182,2.8c.024,2.485,0,4.948.024,7.433h2.485c0-2.557.024-5.092,0-7.649a5.987,5.987,0,0,0-1.279-4.127,4.85,4.85,0,0,0-3.861-.893,4.405,4.405,0,0,0-2.945,1.689,4.146,4.146,0,0,0-6.467-.482" transform="translate(-280.157 -297.803)" fill="#fff"/>
      <path id="Trazado_257" data-name="Trazado 257" d="M71.5,305.827v12.429h2.606a19.346,19.346,0,0,1-.049-2.365c.168-2.7-.072-5.406.049-8.084a11.684,11.684,0,0,0-.1-2.051,17.552,17.552,0,0,0-2.51.072" transform="translate(-59.155 -298.427)" fill="#fff"/>
      <path id="Trazado_258" data-name="Trazado 258" d="M132.066,305.8c-.024,4.176,0,8.326,0,12.5.845,0,1.689,0,2.534.024.049-4.176,0-8.326.024-12.5-.845-.024-1.689-.024-2.557-.024" transform="translate(-105.098 -298.467)" fill="#fff"/>
      <path id="Trazado_268" data-name="Trazado 268" d="M489.989,311.882c-1.279,2.124-2.534,4.271-3.789,6.42.917,0,1.81,0,2.727.024.893-1.521,1.761-3.064,2.534-4.634.821,1.545,1.665,3.064,2.461,4.608.965.024,1.954.024,2.945,0-1.254-2.148-2.534-4.3-3.813-6.444,1.086-2.028,2.51-3.91,3.4-6.034-.864.1-1.714,0-2.582.072-1.008,1.182-1.4,2.848-2.413,4.054-.652-1.375-1.449-2.678-2.124-4.054-.942,0-1.858-.024-2.775-.1.917,2.124,2.341,4.032,3.427,6.081" transform="translate(-373.777 -298.468)" fill="#fff"/>
      <path id="Trazado_247" data-name="Trazado 247" d="M67.452,278.413a11.952,11.952,0,0,1,6.323-2.8,16.021,16.021,0,0,1,5.26.386,12.116,12.116,0,0,1,6.274,4.464l.144.458c-.845-.024-1.714.024-2.557-.024-.8-.432-1.351-1.182-2.148-1.642a9.792,9.792,0,0,0-10.426-.1c-.845.458-1.472,1.231-2.292,1.738a23.943,23.943,0,0,1-2.631,0,7.007,7.007,0,0,1,2.051-2.486" transform="translate(-54.528 -275.546)" fill="#ec2024"/>
      <path id="Trazado_272" data-name="Trazado 272" d="M541.138,285.144a4.821,4.821,0,0,1,3.571-.628,8.078,8.078,0,0,1,2.389,2.848c.8-.821,1.182-2.22,2.461-2.389a6.068,6.068,0,0,1,4.127,2.51c.652.864,1.472,1.931,1.061,3.064a19.7,19.7,0,0,1-1.931,2.775c.989.314,2.172.361,2.92,1.182a4.441,4.441,0,0,1-.386,3.888,6.263,6.263,0,0,1-2.292,2.871c-1.4.482-2.8-.386-4.1-.821-.1,1.182.482,2.871-.772,3.62a7.16,7.16,0,0,1-4.657.168c-1.061-.265-2.317-.772-2.582-1.954A13.573,13.573,0,0,1,540.9,299c-1.182.314-2.582,1.351-3.692.386a6.776,6.776,0,0,1-1.5-3.548,4.439,4.439,0,0,1,.6-3.6,10.265,10.265,0,0,1,3.456-1.279c-.576-1.008-1.907-1.858-1.568-3.185a5.929,5.929,0,0,1,2.945-2.631m1.135,3.692c-.41.242-.338,1.008.193,1.038,1.135-.144,2.461-1.11,3.456-.1a11.994,11.994,0,0,1,1.008-2.1,6.78,6.78,0,0,0-4.657,1.152m7.023,1.254c.554.821,1.472,1.738.893,2.775a14.291,14.291,0,0,1,2.268.338,6.026,6.026,0,0,0-2.871-4.271c-.6.025-.576.821-.288,1.152m-6.9,3.017a5.549,5.549,0,0,1,1.328,4.054,5.357,5.357,0,0,1,4.392.1,5.24,5.24,0,0,1,1.328-4.127,5.338,5.338,0,0,1-3.5-2.557,5.9,5.9,0,0,1-3.548,2.534m-2.438-1.81a7.609,7.609,0,0,0-.628,3.089,2.592,2.592,0,0,0,.845,2.2c1.254-.864-.168-3.064,1.5-3.717-.6-.458-1.135-1.038-1.714-1.568m8.64,6.54c.168.749.265,1.521.361,2.268a6.806,6.806,0,0,0,2.984-3.311,2.261,2.261,0,0,0,.025-1.061c-1.568-.1-1.665,2.485-3.378,2.124m-7.36,1.086a5.933,5.933,0,0,0,5.02,1.689c-.025-.361.049-.845-.41-.942-.942-.432-2.461-.531-2.582-1.835a22.863,22.863,0,0,1-2.027,1.086" transform="translate(-411.268 -282.203)" fill="#ec2024"/>
      <path id="Trazado_250" data-name="Trazado 250" d="M93.584,291.252c.821-.458,1.665-.917,2.51-1.352v3.888c.864.024,1.714.024,2.582.024,0,.772,0,1.545-.024,2.317H96.094v6.492a1.513,1.513,0,0,0,.531,1.4,3.381,3.381,0,0,0,2.654-.554c-.193.8-.386,1.617-.576,2.413a3.809,3.809,0,0,1-3.6.217,3.2,3.2,0,0,1-1.521-2.945c0-2.341-.024-4.657.024-7-.72-.024-1.449-.024-2.172-.024a9.013,9.013,0,0,1,.121-2.413,6.348,6.348,0,0,0,2.028.024v-2.485" transform="translate(-74.265 -286.405)" fill="#104b84"/>
      <path id="Trazado_251" data-name="Trazado 251" d="M159.5,291.328c.821-.458,1.642-.917,2.51-1.328.024,1.665,0,3.331,0,5a5.08,5.08,0,0,1,3.62-1.375,4.51,4.51,0,0,1,4.078,2.727,10.012,10.012,0,0,1,.531,6.057,5.27,5.27,0,0,1-3.838,4.054,4.928,4.928,0,0,1-4.392-1.231v1.086H159.5V291.328m2.51,6.081v5.328a5.1,5.1,0,0,0,2.364,1.5A2.674,2.674,0,0,0,167.463,303a6.9,6.9,0,0,0,.41-4.513,2.9,2.9,0,0,0-2.438-2.534,3.8,3.8,0,0,0-3.427,1.449" transform="translate(-125.919 -286.48)" fill="#104b84"/>
      <path id="Trazado_259" data-name="Trazado 259" d="M21.181,308.157c1.858-3.5,7.53-4.3,10.015-1.038-.193.749-.893,1.231-1.351,1.835a5.009,5.009,0,0,0-2-1.279,3.744,3.744,0,0,0-4.488,1.907,4.139,4.139,0,0,0,1.931,5.648,4.265,4.265,0,0,0,4.585-1.135c.482.576.942,1.152,1.4,1.761a5.828,5.828,0,0,1-3.91,2.124,6.528,6.528,0,0,1-5.937-2.678,7.188,7.188,0,0,1-.242-7.144" transform="translate(-20.347 -297.905)" fill="#104b84"/>
      <path id="Trazado_260" data-name="Trazado 260" d="M210.738,306.008a8.041,8.041,0,0,1,5.527-1.038,4.176,4.176,0,0,1,3.257,2.172,4.985,4.985,0,0,1,.432,2.292v8.159h-2.51c0-.41-.024-.8-.024-1.207a4.977,4.977,0,0,1-6.564.41,4.239,4.239,0,0,1-1.11-4.56,3.853,3.853,0,0,1,2.678-2.341,8.592,8.592,0,0,1,5,.168,2.531,2.531,0,0,0-.989-2.654,5.889,5.889,0,0,0-4.8.41c-.265-.6-.576-1.207-.893-1.81m1.642,6.419a1.84,1.84,0,0,0,.458,2.871,3.8,3.8,0,0,0,4.513-1.182,8.155,8.155,0,0,0,.049-1.882,6.4,6.4,0,0,0-2.22-.458,3.608,3.608,0,0,0-2.8.651" transform="translate(-163.86 -297.758)" fill="#104b84"/>
      <path id="Trazado_261" data-name="Trazado 261" d="M264.61,306.215a4.994,4.994,0,0,1,5.792-.675,4.9,4.9,0,0,1,1.835,4.176c.024,2.631,0,5.26.024,7.92-.821.024-1.617.024-2.438.024v-6.9a4.176,4.176,0,0,0-1.008-3.089,2.827,2.827,0,0,0-2.8-.193,3.024,3.024,0,0,0-1.4,2.775c-.024,2.461.024,4.948,0,7.409H262.1c0-4.152.024-8.277,0-12.429a17.749,17.749,0,0,1,2.534,0c-.024.242-.024.72-.024.989" transform="translate(-203.758 -297.796)" fill="#104b84"/>
      <path id="Trazado_262" data-name="Trazado 262" d="M311.66,305.886a8.373,8.373,0,0,1,6.709-.6,3.786,3.786,0,0,1,2.438,3.6c.025,2.9,0,5.792,0,8.688H318.3v-1.152a5.549,5.549,0,0,1-3.548,1.449A4.146,4.146,0,0,1,311,311.5a4.358,4.358,0,0,1,2.945-1.738,8.94,8.94,0,0,1,4.368.288c.049-.965-.025-2.172-1.038-2.654a6.122,6.122,0,0,0-4.778.41c-.288-.628-.6-1.254-.845-1.907m2.7,5.937a2.2,2.2,0,0,0-1.449,1.038,1.907,1.907,0,0,0,.917,2.461,3.779,3.779,0,0,0,4.032-.8c.72-.531.432-1.545.386-2.292a6.911,6.911,0,0,0-3.888-.41" transform="translate(-240.407 -297.732)" fill="#104b84"/>
      <path id="Trazado_263" data-name="Trazado 263" d="M365.31,306.269a4.189,4.189,0,0,1,6.467.432,4.405,4.405,0,0,1,2.945-1.689,4.85,4.85,0,0,1,3.861.893,5.988,5.988,0,0,1,1.279,4.127c.024,2.557,0,5.092,0,7.651h-2.485c-.024-2.485.024-4.948-.024-7.433a3.141,3.141,0,0,0-1.182-2.8,2.592,2.592,0,0,0-2.7.288,3.8,3.8,0,0,0-.821,2.775v7.144h-2.51v-7.164a4.214,4.214,0,0,0-.749-2.752,2.426,2.426,0,0,0-3.548.458,4.806,4.806,0,0,0-.531,2.534v6.9H362.8v-12.4c.845-.024,1.665-.024,2.51-.024v1.061" transform="translate(-280.157 -297.826)" fill="#104b84"/>
      <path id="Trazado_267" data-name="Trazado 267" d="M441.43,307.191a5.489,5.489,0,0,1,8.181-.942,7.357,7.357,0,0,1,1.738,5.985c-2.848,0-5.72.024-8.567,0a3.852,3.852,0,0,0,1.689,2.945,4.417,4.417,0,0,0,4.561-.554c.458.531.917,1.086,1.375,1.617a6.319,6.319,0,0,1-6.637,1.135,5.76,5.76,0,0,1-3.21-4.15,7.975,7.975,0,0,1,.864-6.034m2.317.772a5.615,5.615,0,0,0-.989,2.1,6.426,6.426,0,0,0,2.147.168c1.352-.024,2.7.025,4.054-.024a4.356,4.356,0,0,0-.628-1.882,2.991,2.991,0,0,0-4.585-.362" transform="translate(-338.974 -297.734)" fill="#104b84"/>
      <path id="Trazado_264" data-name="Trazado 264" d="M71.5,305.827a17.45,17.45,0,0,1,2.51-.072,11.683,11.683,0,0,1,.1,2.051c-.144,2.7.1,5.406-.049,8.084a19.346,19.346,0,0,0,.049,2.365H71.5Z" transform="translate(-59.155 -298.428)" fill="#104b84"/>
      <path id="Trazado_265" data-name="Trazado 265" d="M132.1,305.8c.845,0,1.689,0,2.557.024-.024,4.176.024,8.326-.024,12.5-.845-.024-1.689-.024-2.534-.024V305.8" transform="translate(-105.132 -298.467)" fill="#104b84"/>
      <path id="Trazado_269" data-name="Trazado 269" d="M489.989,311.881c-1.086-2.051-2.485-3.957-3.427-6.081.917.072,1.858.1,2.775.1.7,1.375,1.472,2.678,2.124,4.054,1.008-1.231,1.4-2.871,2.413-4.054.864-.072,1.714.024,2.582-.072-.893,2.124-2.317,4.006-3.4,6.034,1.279,2.148,2.557,4.3,3.813,6.444-.989.024-1.954.024-2.945,0-.8-1.545-1.642-3.089-2.461-4.608-.772,1.593-1.642,3.113-2.534,4.634-.917-.024-1.835,0-2.727-.024,1.254-2.148,2.485-4.3,3.789-6.42" transform="translate(-373.778 -298.467)" fill="#104b84"/>
    </g>
  </g>
</svg>
