<svg xmlns="http://www.w3.org/2000/svg" width="34" height="34" viewBox="0 0 34 34"><defs><style>.a{fill:#670f0f;opacity:0;}.b{fill:#fd7d21;}.c{fill:#fdcb02;}.d{fill:#ff4b00;}.e{fill:#fff;}.f{fill:#fafcfd;}</style></defs><g transform="translate(10276 16926)"><rect class="a" width="34" height="34" transform="translate(-10276 -16926)"/><g transform="translate(-22709 -6698)"><path class="b" d="M245.511,32.19c-6.013-6.361-7.379-11.308-7.379-11.308a9.411,9.411,0,0,0-2.214,1.465l-1.476,16.2L235.918,52.4h0a12.865,12.865,0,0,0,13.133-12.578C249.051,36.952,247.378,34.165,245.511,32.19Z" transform="translate(12213.913 -10247.438)"/><path class="b" d="M76.861,45.762a9.3,9.3,0,0,0-.922,4.3,2.551,2.551,0,0,1-2.121,2.485,2.719,2.719,0,0,1-2.383-.69L70.219,50.7s-1.8,2.374-2.111,2.821a12.1,12.1,0,0,0-2.167,7A12.83,12.83,0,0,0,79.075,72.98V42.992A9.547,9.547,0,0,0,76.861,45.762Z" transform="translate(12372.097 -10268.019)"/><g transform="translate(12437 -10228)"><path class="c" d="M256.207,12.062a37.589,37.589,0,0,1-5.751-7.777,17.512,17.512,0,0,1-1.394-3.152L248.75,0l-1.114.477a9.67,9.67,0,0,0-1.791,1.079l-.738,1.249.738,1.47a9.491,9.491,0,0,1,1.65-1.408A35.438,35.438,0,0,0,254.669,13.4c.984,1.044,3.271,3.813,3.271,6.985a11.878,11.878,0,0,1-12.1,11.62h0l-.738,1.285.738.709h0c7.814,0,14.171-6.107,14.171-13.614A12.7,12.7,0,0,0,256.207,12.062Z" transform="translate(-233.015)"/><path class="c" d="M56.583,50.452A11.262,11.262,0,0,1,55.011,35.83c.162-.234.81-1.1,1.372-1.849l.354.34a3.772,3.772,0,0,0,3.32.964,3.57,3.57,0,0,0,2.955-3.474,8.477,8.477,0,0,1,.813-3.867,8.288,8.288,0,0,1,1.286-1.808V23.421a10.776,10.776,0,0,0-3.142,3.632,10.388,10.388,0,0,0-1.032,4.767,1.554,1.554,0,0,1-1.287,1.512,1.643,1.643,0,0,1-1.446-.42l-2.075-1.99-.714.944c-.074.1-1.819,2.405-2.136,2.866a13.19,13.19,0,0,0,1.841,17.132,14.406,14.406,0,0,0,9.99,3.936V53.81A12.3,12.3,0,0,1,56.583,50.452Z" transform="translate(-50.94 -21.801)"/></g><path class="d" d="M232.2,206.042h-.023l-1.729,8.117,1.729,8.117h.023a8.117,8.117,0,0,0,0-16.235Z" transform="translate(12218.072 -10421.178)"/><path class="d" d="M138.441,214.163a8.117,8.117,0,0,0,8.094,8.117V206.046A8.117,8.117,0,0,0,138.441,214.163Z" transform="translate(12304.212 -10421.181)"/><g transform="translate(12444.476 -10211.478)"><path class="e" d="M250.25,254.5h-2.3l-2.126,3.114-.715,2.862.715.507Z" transform="translate(-239.822 -254.367)"/><path class="e" d="M272.179,317.472a2.658,2.658,0,1,0,2.532,2.655A2.442,2.442,0,0,0,272.179,317.472Zm0,3.839c-.3,0-.6-.272-.6-1.184s.3-1.184.6-1.184.6.272.6,1.184S272.479,321.311,272.179,321.311Z" transform="translate(-262.663 -312.98)"/><path class="f" d="M194.418,305.928l2.08-3.046v-3.369l-4.381,6.415Z" transform="translate(-190.497 -296.263)"/><path class="f" d="M173.764,255.19a2.535,2.535,0,1,0-2.532,2.655A2.442,2.442,0,0,0,173.764,255.19Zm-3.131,0c0-.912.3-1.184.6-1.184s.6.272.6,1.184-.3,1.184-.6,1.184S170.633,256.1,170.633,255.19Z" transform="translate(-168.7 -252.535)"/></g></g></g></svg>
