<svg xmlns="http://www.w3.org/2000/svg" xmlns:xlink="http://www.w3.org/1999/xlink" width="65.184" height="65.118" viewBox="0 0 65.184 65.118">
  <defs>
    <linearGradient id="linear-gradient" x1="0.5" x2="0.5" y2="1" gradientUnits="objectBoundingBox">
      <stop offset="0" stop-color="#ff6100"/>
      <stop offset="1" stop-color="#f60070"/>
    </linearGradient>
  </defs>
  <g id="Page-2" transform="translate(-0.408 -0.436)">
    <g id="PROMO" transform="translate(1 1)">
      <path id="Fill-1" d="M58.54,23.25a.834.834,0,0,1-.143-.478l.1-8.492a3.282,3.282,0,0,0-2.2-3.17L48.52,8.593a.635.635,0,0,1-.349-.289l-4.68-6.92A3.144,3.144,0,0,0,39.917.163L32.229,2.906a.673.673,0,0,1-.469-.013L24.084.163a3.144,3.144,0,0,0-3.573,1.22L15.83,8.316a.638.638,0,0,1-.373.277L7.709,11.109a3.285,3.285,0,0,0-2.2,3.17L5.6,22.8a.691.691,0,0,1-.132.428L.623,30.031a3.4,3.4,0,0,0,0,3.925l4.837,6.781a.826.826,0,0,1,.144.478l-.1,8.492a3.285,3.285,0,0,0,2.2,3.17l7.772,2.516a.639.639,0,0,1,.349.289l4.68,6.92a3.15,3.15,0,0,0,3.573,1.22l7.688-2.743a.673.673,0,0,1,.469.013l7.676,2.73a2.932,2.932,0,0,0,1,.176,3.133,3.133,0,0,0,2.575-1.4l4.68-6.933a.637.637,0,0,1,.373-.276l7.748-2.516a3.282,3.282,0,0,0,2.2-3.17l-.1-8.517a.689.689,0,0,1,.132-.428l4.849-6.806a3.409,3.409,0,0,0,0-3.925Z" stroke="#fff" stroke-width="1" fill-rule="evenodd" fill="url(#linear-gradient)"/>
      <g id="Group" transform="translate(21.021 18)">
        <rect id="Rectangle-Copy-4" width="20.16" height="13.44" transform="translate(1.12 14.56)" fill="#fff"/>
        <path id="Combined-Shape" d="M7.485,6.551A7.284,7.284,0,0,1,4.962,5.368C3.655,4.31,3.652,2.86,4.853,1.386,7.051-1.31,9.255.014,11.2,4.6c1.945-4.586,4.149-5.91,6.347-3.214,1.2,1.473,1.2,2.924-.109,3.982a7.284,7.284,0,0,1-2.523,1.183H22.4V12.32H0V6.551ZM5.925,2.314c-.729.894-.728,1.411-.1,1.92a10.053,10.053,0,0,0,4.295,1.428C8.526,1.565,7.223.721,5.925,2.314Zm10.648,1.92c.629-.509.63-1.026-.1-1.92-1.3-1.592-2.6-.749-4.2,3.348A10.053,10.053,0,0,0,16.573,4.233Z" transform="translate(0 0)" fill="#fff" fill-rule="evenodd"/>
      </g>
    </g>
  </g>
</svg>
