<svg xmlns="http://www.w3.org/2000/svg" width="48" height="48" viewBox="0 0 48 48">
    <path fill="#333" fill-rule="evenodd" d="M33.67 19.502a7.069 7.069 0 0 1-.928 1.872 9.24 9.24 0 0 1-1.444 1.61c-.564.5-1.2 1.023-1.914 1.566-.441.351-.808.662-1.095.934-.29.272-.516.551-.68.835a2.973 2.973 0 0 0-.35.897c-.07.312-.104.683-.104 1.118v.668H20.76v-1.156c0-.706.067-1.335.204-1.89a5.564 5.564 0 0 1 .617-1.528 8.203 8.203 0 0 1 1.004-1.345c.396-.434.867-.88 1.414-1.342l1.35-1.262a8.114 8.114 0 0 0 1.192-1.282c.326-.447.49-.984.49-1.607 0-.867-.266-1.563-.8-2.08-.531-.513-1.265-.772-2.192-.772-1.147 0-2.008.388-2.581 1.163a4.766 4.766 0 0 0-.945 2.624L14 17.833c.164-1.465.537-2.753 1.124-3.866.59-1.113 1.348-2.036 2.275-2.77a9.746 9.746 0 0 1 3.159-1.648A12.525 12.525 0 0 1 24.297 9c1.234 0 2.432.157 3.599.468 1.165.312 2.198.8 3.102 1.466a7.472 7.472 0 0 1 2.182 2.544c.547 1.03.82 2.251.82 3.662 0 .895-.11 1.683-.33 2.362M26.828 37.88C26.062 38.626 25.12 39 24 39c-.547 0-1.06-.096-1.538-.286a4.026 4.026 0 0 1-2.151-2.037 3.437 3.437 0 0 1-.327-1.504c0-.516.1-1.009.307-1.487.203-.474.49-.888.86-1.238a4.05 4.05 0 0 1 1.29-.835A3.989 3.989 0 0 1 24 31.304c.547 0 1.058.103 1.538.31.477.201.9.472 1.27.81.368.341.654.748.86 1.222.205.475.308.971.308 1.488 0 1.083-.383 2-1.148 2.746M24 3C12.402 3 3 12.401 3 24c0 11.597 9.402 21 21 21s21-9.403 21-21c0-11.599-9.402-21-21-21"/>
</svg>
