<svg xmlns="http://www.w3.org/2000/svg" width="24" height="24" viewBox="0 0 24 24"><defs><style>.a{fill:#fff;opacity:0;}.b,.d{fill:none;}.b{stroke:#000;stroke-width:1.8px;}.c{stroke:none;}</style></defs><g transform="translate(5702 8387)"><rect class="a" width="24" height="24" transform="translate(-5702 -8387)"/><g transform="translate(2605 -5)"><g class="b" transform="translate(-8306 -8381)"><circle class="c" cx="10.721" cy="10.721" r="10.721"/><circle class="d" cx="10.721" cy="10.721" r="9.821"/></g><path d="M3.229-2.657a3.422,3.422,0,0,1,.054-1.359,4.248,4.248,0,0,1,.472-1.133,6.355,6.355,0,0,1,.708-.958q.4-.443.75-.865a5.778,5.778,0,0,0,.59-.834,1.753,1.753,0,0,0,.236-.886,1.6,1.6,0,0,0-.461-1.195A1.742,1.742,0,0,0,4.3-10.34a2.494,2.494,0,0,0-1.2.288,4.05,4.05,0,0,0-1.008.783L.72-10.484A5.9,5.9,0,0,1,2.4-11.771a4.713,4.713,0,0,1,2.2-.5,5.261,5.261,0,0,1,1.544.216,3.326,3.326,0,0,1,1.211.649A3.049,3.049,0,0,1,8.15-10.34a3.56,3.56,0,0,1,.289,1.483,2.754,2.754,0,0,1-.247,1.184,5.4,5.4,0,0,1-.611,1,10.631,10.631,0,0,1-.783.906,7.509,7.509,0,0,0-.75.906,4.6,4.6,0,0,0-.536,1.009,2.434,2.434,0,0,0-.118,1.195ZM4.322,2.019a1.535,1.535,0,0,1-1.136-.453A1.568,1.568,0,0,1,2.736.412a1.568,1.568,0,0,1,.45-1.153,1.535,1.535,0,0,1,1.136-.453,1.571,1.571,0,0,1,1.147.453A1.548,1.548,0,0,1,5.93.412a1.548,1.548,0,0,1-.461,1.153A1.571,1.571,0,0,1,4.322,2.019Z" transform="translate(-8299.572 -8365.149)"/></g></g></svg>