<svg xmlns="http://www.w3.org/2000/svg" width="158" height="72" viewBox="0 0 158 72">
  <g id="HSBC" transform="translate(-1063 -251)">
    <rect id="Rectángulo_1" data-name="Rectángulo 1" width="158" height="72" transform="translate(1063 251)" fill="#aaa7ff" opacity="0"/>
    <g id="Android-Copy" transform="translate(1075.96 269.72)">
      <g id="HSBC_logo__2018_-Copy" data-name="HSBC_logo_(2018)-Copy" transform="translate(0 0)">
        <rect id="Rectangle" width="35.083" height="35.127" transform="translate(17.542)" fill="#fff"/>
        <path id="Path" d="M63.2,17.585,45.656,0V35.127Z" transform="translate(7.035)" fill="#db0011"/>
        <path id="Path-2" data-name="Path" d="M32.523,17.568,50.064,0H14.981Z" transform="translate(2.561)" fill="#db0011"/>
        <path id="Path-3" data-name="Path" d="M0,17.585,17.542,35.127V0Z" fill="#db0011"/>
        <path id="Path-4" data-name="Path" d="M32.523,15,14.981,32.568H50.064Z" transform="translate(2.561 2.564)" fill="#db0011"/>
        <path id="Path-5" data-name="Path" d="M75.74,17.2H69.476v6.428H66.344V8.571h3.132v6.175H75.74V8.571h3.132V23.626H75.74Z" transform="translate(11.34 1.464)"/>
        <path id="Path-6" data-name="Path" d="M83.849,23.626c-3.326,0-6.048-1.264-6.088-4.733h3.324A2.448,2.448,0,0,0,83.9,21.381c1.339,0,2.894-.652,2.894-2.081,0-1.143-1.037-1.469-2.766-1.958L82.9,17.054c-2.419-.652-4.84-1.551-4.84-4.162,0-3.224,3.2-4.32,6.088-4.32,2.981,0,5.574.979,5.616,4.2H86.443a2.2,2.2,0,0,0-2.506-2.081c-1.253,0-2.46.612-2.46,1.918,0,1.061,1.037,1.388,3.2,2.039l1.3.367c2.635.775,4.32,1.633,4.32,4.08C90.244,22.36,86.875,23.626,83.849,23.626Z" transform="translate(13.29 1.465)"/>
        <path id="Shape" d="M89.885,8.586h4.752a11.459,11.459,0,0,1,2.686.17A3.591,3.591,0,0,1,100.24,12.4a3.293,3.293,0,0,1-2.725,3.388,3.506,3.506,0,0,1,3.224,3.643c0,3.432-3.07,4.195-5.449,4.195H89.924Zm4.752,6.27c1.3,0,2.647-.3,2.647-2.033,0-1.568-1.228-1.99-2.46-1.99H92.758v4.025Zm.268,6.525c1.382,0,2.724-.338,2.724-2.2s-1.152-2.2-2.576-2.2H92.717v4.406Z" transform="translate(15.363 1.465)"/>
        <path id="Path-7" data-name="Path" d="M107.945,23.626c-4.608,0-6.646-2.971-6.646-7.4s2.282-7.649,6.805-7.649c2.841,0,5.6,1.3,5.685,4.558h-3.2a2.29,2.29,0,0,0-2.483-2.2c-2.8,0-3.643,3.051-3.643,5.371s.841,5,3.522,5a2.465,2.465,0,0,0,2.641-2.238h3.2C113.509,22.4,110.9,23.626,107.945,23.626Z" transform="translate(17.314 1.465)"/>
      </g>
    </g>
  </g>
</svg>
