<svg xmlns="http://www.w3.org/2000/svg" width="158" height="72" viewBox="0 0 158 72">
  <g id="INBURSA" transform="translate(-283 -321)">
    <rect id="Rectángulo_1" data-name="Rectángulo 1" width="158" height="72" transform="translate(283 321)" fill="#aaa7ff" opacity="0"/>
    <g id="Grupo_9" data-name="Grupo 9" transform="translate(298.84 339.72)">
      <path id="Trazado_96" data-name="Trazado 96" d="M31.057,53.57A7.158,7.158,0,0,0,23.9,60.727a6.836,6.836,0,0,0,2.091,5.07,7.056,7.056,0,0,0,10.136,0,6.828,6.828,0,0,0,2.091-5.069,7.158,7.158,0,0,0-7.161-7.158Z" transform="translate(-14.464 -44.135)" fill="#002446" fill-rule="evenodd"/>
      <path id="Trazado_97" data-name="Trazado 97" d="M30.658,48.565V40.39a16.743,16.743,0,0,0-8.168,2.147v12.42a8.018,8.018,0,0,1,2.913-4.5,8.132,8.132,0,0,1,5.255-1.9Z" transform="translate(-14.064 -40.39)" fill="#002446" fill-rule="evenodd"/>
      <path id="Trazado_98" data-name="Trazado 98" d="M25.538,72.008a8.555,8.555,0,0,1-6.4-8.168H10.72a16.142,16.142,0,0,0,2.219,8.167Z" transform="translate(-10.72 -47.054)" fill="#002446" fill-rule="evenodd"/>
      <path id="Trazado_99" data-name="Trazado 99" d="M42.16,66.58a8.052,8.052,0,0,1-2.913,4.56A8.31,8.31,0,0,1,34,72.979v8.04a16.092,16.092,0,0,0,8.168-2.147V66.58h0Z" transform="translate(-17.335 -47.833)" fill="#002446" fill-rule="evenodd"/>
      <path id="Trazado_100" data-name="Trazado 100" d="M51.322,60.238a16.15,16.15,0,0,0-2.2-8.168H36.82a7.96,7.96,0,0,1,4.56,2.913,8.074,8.074,0,0,1,1.84,5.255Z" transform="translate(-18.136 -43.709)" fill="#002446" fill-rule="evenodd"/>
      <path id="Trazado_101" data-name="Trazado 101" d="M62.39,52.69v9.628H65.3V52.69Z" transform="translate(-25.402 -43.886)" fill="#002446" fill-rule="evenodd"/>
      <path id="Trazado_102" data-name="Trazado 102" d="M82.552,52.69H79.574v6.965h0L73.94,52.69H69.38v9.628h2.971v-7.03h0l5.576,7.03H82.55V52.69Z" transform="translate(-27.39 -43.886)" fill="#002446" fill-rule="evenodd"/>
      <path id="Trazado_103" data-name="Trazado 103" d="M93.411,56.5V54.971h5.255a.766.766,0,1,1,0,1.518H93.411Zm0,1.961h5.3c.72,0,1.074.315,1.074.824s-.379.72-1.074.72h-5.3V58.46Zm7.659-1.017v-.058a1.718,1.718,0,0,0,1.017-.576,2.863,2.863,0,0,0-.444-3.58,4.954,4.954,0,0,0-2.663-.508H90.43v9.6h9.5a3.658,3.658,0,0,0,2.091-.444,2.663,2.663,0,0,0,.824-2.091,2.736,2.736,0,0,0-.379-1.646,1.976,1.976,0,0,0-1.4-.72h0Z" transform="translate(-33.371 -43.89)" fill="#002446" fill-rule="evenodd"/>
      <path id="Trazado_104" data-name="Trazado 104" d="M122.308,52.69h-2.913v5.57a2.147,2.147,0,0,1-.379,1.267,1.7,1.7,0,0,1-1.332.444h-2.913a1.689,1.689,0,0,1-1.332-.444,1.783,1.783,0,0,1-.315-1.267V52.69h-2.978V58.9a3.4,3.4,0,0,0,.952,2.655,4.1,4.1,0,0,0,2.978.887h4.3a4.081,4.081,0,0,0,2.978-.887A3.407,3.407,0,0,0,122.3,58.9V52.69h0Z" transform="translate(-38.969 -43.886)" fill="#002446" fill-rule="evenodd"/>
      <path id="Trazado_105" data-name="Trazado 105" d="M132.807,57.374v-2.32H137.5c.795,0,1.332.135,1.332,1.017v.315a.923.923,0,0,1-1.074,1.017h-4.946Zm0,2.47H137.5a1.318,1.318,0,0,1,.952.251,1.584,1.584,0,0,1,.251,1.081v1.138h2.978V60.667a2.255,2.255,0,0,0-.444-1.584,2.419,2.419,0,0,0-1.138-.576,2.026,2.026,0,0,0,1.3-.824,3.494,3.494,0,0,0,.315-1.584v-.576a3.168,3.168,0,0,0-.576-2.091,2.92,2.92,0,0,0-2.341-.759H129.8V62.3h3.007Z" transform="translate(-44.558 -43.88)" fill="#002446" fill-rule="evenodd"/>
      <path id="Trazado_106" data-name="Trazado 106" d="M155.332,56.233l-2.978-.128a.537.537,0,0,1-.444-.251.72.72,0,0,1-.128-.444q0-.759,1.138-.759h3.293a2.72,2.72,0,0,1,1.267.186,1.188,1.188,0,0,1,.193.824h2.978v-.315a2.663,2.663,0,0,0-.629-2.091,4.234,4.234,0,0,0-3.106-.824h-4.176a4.6,4.6,0,0,0-3.357.887,3.443,3.443,0,0,0-.576,2.219A4.661,4.661,0,0,0,149,57.056a1.431,1.431,0,0,0,.629.887,9.425,9.425,0,0,0,4.176.576l3.58.128a.576.576,0,0,1,.508.251l.128.508a.72.72,0,0,1-.379.72l-.887.128h-3.672l-.981-.243a1.117,1.117,0,0,1-.315-.945h-2.978v.72a2.34,2.34,0,0,0,.887,2.091,6.084,6.084,0,0,0,2.913.508h3.58a8.257,8.257,0,0,0,3.865-.576,1.5,1.5,0,0,0,.759-.887,5.4,5.4,0,0,0,.193-1.584,3.716,3.716,0,0,0-.251-1.646,1.539,1.539,0,0,0-.824-.952,12.07,12.07,0,0,0-4.624-.508h0Z" transform="translate(-49.953 -43.82)" fill="#002446" fill-rule="evenodd"/>
      <path id="Trazado_107" data-name="Trazado 107" d="M176.071,52.69h-3.864l-5.262,9.628H170.3l.824-1.711,1.138-2.091,1.9-3.607,1.9,3.607h-3.8l-1.138,2.091H177.2l.887,1.711h3.293l-5.318-9.628Z" transform="translate(-55.117 -43.886)" fill="#002446" fill-rule="evenodd"/>
      <path id="Trazado_108" data-name="Trazado 108" d="M95.031,75.143V74.4h2.727v2.369a4.8,4.8,0,0,1-1.3.752,3.851,3.851,0,0,1-1.367.251,3.651,3.651,0,0,1-1.718-.386A2.684,2.684,0,0,1,92.2,76.209a3.694,3.694,0,0,1-.393-1.718,3.98,3.98,0,0,1,.393-1.754,2.6,2.6,0,0,1,1.13-1.21,3.58,3.58,0,0,1,1.7-.393,3.358,3.358,0,0,1,1.26.229,2.076,2.076,0,0,1,.887.629,2.805,2.805,0,0,1,.487,1.053l-.766.215a2.4,2.4,0,0,0-.359-.773,1.431,1.431,0,0,0-.616-.451,2.262,2.262,0,0,0-.887-.171,2.614,2.614,0,0,0-1.008.179,1.872,1.872,0,0,0-.72.465,2.218,2.218,0,0,0-.408.636,3.363,3.363,0,0,0-.251,1.289,3.135,3.135,0,0,0,.288,1.431,1.889,1.889,0,0,0,.88.9,2.655,2.655,0,0,0,1.2.288,2.863,2.863,0,0,0,1.081-.215,2.778,2.778,0,0,0,.838-.487v-1.2Z" transform="translate(-33.762 -49.122)" fill="#002446" fill-rule="evenodd"/>
      <path id="Trazado_109" data-name="Trazado 109" d="M101.72,78.382v-4.66h.72v.72a1.918,1.918,0,0,1,.5-.651.881.881,0,0,1,.508-.157,1.547,1.547,0,0,1,.809.258l-.272.72a1.11,1.11,0,0,0-.576-.171.766.766,0,0,0-.465.157.852.852,0,0,0-.288.432,3.049,3.049,0,0,0-.128.923V78.4h-.788Z" transform="translate(-36.579 -49.834)" fill="#002446" fill-rule="evenodd"/>
      <path id="Trazado_110" data-name="Trazado 110" d="M108.957,78.426v-.72a1.711,1.711,0,0,1-1.482.788,1.889,1.889,0,0,1-.8-.122,1.267,1.267,0,0,1-.53-.393,1.482,1.482,0,0,1-.243-.588,4.145,4.145,0,0,1-.05-.72V73.81h.824V76.4a4.719,4.719,0,0,0,.05.838.838.838,0,0,0,.315.494.981.981,0,0,0,.6.179,1.3,1.3,0,0,0,.665-.179,1.008,1.008,0,0,0,.444-.494,2.484,2.484,0,0,0,.128-.916V73.76h.788v4.666h-.719Z" transform="translate(-37.753 -49.873)" fill="#002446" fill-rule="evenodd"/>
      <path id="Trazado_111" data-name="Trazado 111" d="M112.9,80.162V73.72h.72v.6a1.783,1.783,0,0,1,.576-.537,1.575,1.575,0,0,1,.773-.179,1.855,1.855,0,0,1,1.053.308,1.882,1.882,0,0,1,.72.864,3.156,3.156,0,0,1,.236,1.231,3.106,3.106,0,0,1-.258,1.289,1.947,1.947,0,0,1-1.776,1.181,1.482,1.482,0,0,1-.72-.164,1.6,1.6,0,0,1-.537-.415v2.269H112.9Zm.72-4.094a2.033,2.033,0,0,0,.366,1.332,1.123,1.123,0,0,0,.88.432,1.138,1.138,0,0,0,.9-.444,2.147,2.147,0,0,0,.379-1.381,2.069,2.069,0,0,0-.366-1.339,1.11,1.11,0,0,0-.873-.444,1.138,1.138,0,0,0-.894.472,2.147,2.147,0,0,0-.386,1.374h0Z" transform="translate(-39.755 -49.826)" fill="#002446" fill-rule="evenodd"/>
      <path id="Trazado_112" data-name="Trazado 112" d="M119.469,76.033a2.4,2.4,0,0,1,.72-1.918,2.147,2.147,0,0,1,1.431-.516,2.091,2.091,0,0,1,1.575.629,2.39,2.39,0,0,1,.609,1.74,3.086,3.086,0,0,1-.272,1.431,1.918,1.918,0,0,1-.788.8,2.3,2.3,0,0,1-1.13.288,2.091,2.091,0,0,1-1.584-.629,2.506,2.506,0,0,1-.6-1.812h0Zm.809,0a1.983,1.983,0,0,0,.393,1.346,1.3,1.3,0,0,0,1.961,0,2.04,2.04,0,0,0,.393-1.367,1.925,1.925,0,0,0-.393-1.31,1.3,1.3,0,0,0-1.961,0,1.968,1.968,0,0,0-.393,1.339h0Z" transform="translate(-41.608 -49.826)" fill="#002446" fill-rule="evenodd"/>
      <path id="Trazado_113" data-name="Trazado 113" d="M130.59,77.715V71.28h4.344v.759h-3.493v1.99h3.024V74.8h-3.024v2.92Z" transform="translate(-44.783 -49.167)" fill="#002446" fill-rule="evenodd"/>
      <path id="Trazado_114" data-name="Trazado 114" d="M138.07,72.189V71.28h.795v.909Zm0,5.534V73.056h.795v4.667h-.795Z" transform="translate(-46.908 -49.167)" fill="#002446" fill-rule="evenodd"/>
      <path id="Trazado_115" data-name="Trazado 115" d="M140.845,78.381V73.719h.72v.665a1.675,1.675,0,0,1,1.482-.766,1.968,1.968,0,0,1,.773.144,1.21,1.21,0,0,1,.53.4,1.5,1.5,0,0,1,.251.576,4.631,4.631,0,0,1,.043.773v2.876h-.831V75.524a2.148,2.148,0,0,0-.094-.72.759.759,0,0,0-.33-.379,1.038,1.038,0,0,0-.552-.144,1.3,1.3,0,0,0-.873.323,1.584,1.584,0,0,0-.366,1.217v2.549h-.788Z" transform="translate(-47.686 -49.833)" fill="#002446" fill-rule="evenodd"/>
      <path id="Trazado_116" data-name="Trazado 116" d="M150.77,77.8a3,3,0,0,1-.845.53,2.455,2.455,0,0,1-.873.144,1.7,1.7,0,0,1-1.217-.372,1.246,1.246,0,0,1-.415-.959,1.26,1.26,0,0,1,.157-.622,1.282,1.282,0,0,1,.407-.451,1.89,1.89,0,0,1,.576-.258,5.421,5.421,0,0,1,.72-.122,7.156,7.156,0,0,0,1.431-.272v-.207a.874.874,0,0,0-.222-.72,1.31,1.31,0,0,0-.9-.272,1.431,1.431,0,0,0-.824.193,1.2,1.2,0,0,0-.393.72l-.773-.108a1.926,1.926,0,0,1,.344-.8,1.518,1.518,0,0,1,.72-.472,3.128,3.128,0,0,1,1.06-.164,2.814,2.814,0,0,1,.973.144,1.3,1.3,0,0,1,.552.359,1.253,1.253,0,0,1,.243.537,4.591,4.591,0,0,1,.036.72V76.4a10.847,10.847,0,0,0,.05,1.4,1.747,1.747,0,0,0,.2.559h-.824a1.667,1.667,0,0,1-.157-.576h0Zm-.072-1.768a5.82,5.82,0,0,1-1.289.3,3.024,3.024,0,0,0-.72.157.672.672,0,0,0-.315.258.665.665,0,0,0-.115.372.72.72,0,0,0,.243.53,1.031,1.031,0,0,0,.72.207,1.617,1.617,0,0,0,.816-.2,1.238,1.238,0,0,0,.523-.544,1.9,1.9,0,0,0,.128-.788v-.288h0Z" transform="translate(-49.565 -49.825)" fill="#002446" fill-rule="evenodd"/>
      <path id="Trazado_117" data-name="Trazado 117" d="M154.831,78.381V73.719h.72v.665a1.675,1.675,0,0,1,1.482-.766,1.968,1.968,0,0,1,.773.144,1.224,1.224,0,0,1,.53.4,1.517,1.517,0,0,1,.251.576,4.659,4.659,0,0,1,.043.773v2.876h-.816V75.524a2.147,2.147,0,0,0-.094-.72.759.759,0,0,0-.33-.379,1.038,1.038,0,0,0-.552-.144,1.3,1.3,0,0,0-.873.323,1.584,1.584,0,0,0-.366,1.217v2.549h-.788Z" transform="translate(-51.665 -49.833)" fill="#002446" fill-rule="evenodd"/>
      <path id="Trazado_118" data-name="Trazado 118" d="M164.775,76.663l.781.086a2,2,0,0,1-.651,1.26,1.9,1.9,0,0,1-1.289.451,2,2,0,0,1-1.539-.622,2.541,2.541,0,0,1-.576-1.8,3.265,3.265,0,0,1,.251-1.325,1.747,1.747,0,0,1,.759-.831,2.248,2.248,0,0,1,1.11-.288,1.932,1.932,0,0,1,1.246.386,1.761,1.761,0,0,1,.622,1.089l-.773.115a1.3,1.3,0,0,0-.386-.72,1.008,1.008,0,0,0-.673-.236,1.231,1.231,0,0,0-.973.432,2.033,2.033,0,0,0-.371,1.354,2.105,2.105,0,0,0,.359,1.367,1.174,1.174,0,0,0,.937.432,1.1,1.1,0,0,0,.773-.288,1.431,1.431,0,0,0,.393-.88h0Z" transform="translate(-53.563 -49.827)" fill="#002446" fill-rule="evenodd"/>
      <path id="Trazado_119" data-name="Trazado 119" d="M168.12,72.189V71.28h.795v.909Zm0,5.534V73.056h.795v4.667h-.795Z" transform="translate(-55.447 -49.167)" fill="#002446" fill-rule="evenodd"/>
      <path id="Trazado_120" data-name="Trazado 120" d="M173.994,76.871l.816.1a2,2,0,0,1-.72,1.11,2.438,2.438,0,0,1-2.964-.236,2.463,2.463,0,0,1-.6-1.768,2.592,2.592,0,0,1,.609-1.826,2.048,2.048,0,0,1,1.575-.651,1.99,1.99,0,0,1,1.525.636,2.527,2.527,0,0,1,.595,1.79v.215h-3.475a1.775,1.775,0,0,0,.432,1.174,1.3,1.3,0,0,0,.973.408,1.209,1.209,0,0,0,.72-.229,1.511,1.511,0,0,0,.487-.72h0ZM171.4,75.589h2.6a1.567,1.567,0,0,0-.3-.88,1.217,1.217,0,0,0-.981-.458,1.26,1.26,0,0,0-.916.366,1.431,1.431,0,0,0-.408.973Z" transform="translate(-56.132 -49.826)" fill="#002446" fill-rule="evenodd"/>
      <path id="Trazado_121" data-name="Trazado 121" d="M177.874,78.382v-4.66h.72v.72a1.911,1.911,0,0,1,.5-.651.881.881,0,0,1,.508-.157,1.547,1.547,0,0,1,.809.258l-.308.72a1.11,1.11,0,0,0-.576-.171.759.759,0,0,0-.465.157.853.853,0,0,0-.288.432,3.061,3.061,0,0,0-.128.923V78.4h-.788Z" transform="translate(-58.207 -49.834)" fill="#002446" fill-rule="evenodd"/>
      <path id="Trazado_122" data-name="Trazado 122" d="M181.666,76.033a2.4,2.4,0,0,1,.72-1.918,2.147,2.147,0,0,1,1.431-.516,2.091,2.091,0,0,1,1.575.629,2.39,2.39,0,0,1,.609,1.74,3.07,3.07,0,0,1-.272,1.431,1.918,1.918,0,0,1-.744.78,2.3,2.3,0,0,1-1.13.288,2.089,2.089,0,0,1-1.584-.629,2.513,2.513,0,0,1-.6-1.812h0Zm.816,0a1.983,1.983,0,0,0,.393,1.346,1.3,1.3,0,0,0,1.968,0,2.04,2.04,0,0,0,.386-1.367,1.925,1.925,0,0,0-.393-1.31,1.3,1.3,0,0,0-1.961,0,1.976,1.976,0,0,0-.393,1.339h0Z" transform="translate(-59.295 -49.826)" fill="#002446" fill-rule="evenodd"/>
    </g>
  </g>
</svg>
