<svg xmlns="http://www.w3.org/2000/svg" width="158" height="72" viewBox="0 0 158 72">
  <g id="INVEX" transform="translate(-413 -321)">
    <rect id="Rectángulo_1" data-name="Rectángulo 1" width="158" height="72" transform="translate(413 321)" fill="#aaa7ff" opacity="0"/>
    <g id="Grupo_10" data-name="Grupo 10" transform="translate(420.202 345.482)">
      <path id="Trazado_123" data-name="Trazado 123" d="M98.674,57.875l-1.812,2.8c-.94,1.46-1.9,2.9-2.8,4.38a.982.982,0,0,0,0,.84c.756,1.225,1.561,2.416,2.359,3.626l2.475,3.744a1.05,1.05,0,0,1,.059.276,5.443,5.443,0,0,1-.638.075H93.346a.756.756,0,0,1-.84-.528c-.588-1.41-1.243-2.8-1.888-4.2-.2-.432-.445-.21-.6.05-.353.6-.68,1.208-1.008,1.822-.432.84-.84,1.679-1.309,2.46a.906.906,0,0,1-.662.369c-2.173,0-4.347,0-6.52.059-2.03,0-4.054.068-6.084.109a11.321,11.321,0,0,1-4.154-.576,7.721,7.721,0,0,1-4.867-4.558,9.114,9.114,0,0,1-.235-5.724,7.125,7.125,0,0,1,5.04-5.211,11.232,11.232,0,0,1,5.2-.311,6.713,6.713,0,0,1,5.646,5.527,24.336,24.336,0,0,1,.361,3.3c.05.671-.042.72-.7.72H71.181c-.956,0-1.217.462-.72,1.318a3.357,3.357,0,0,0,2.517,1.679c1.152.144,2.324.2,3.491.243s2.416,0,3.617,0q1.528,0,3.054-.144a.949.949,0,0,0,.612-.361c.84-1.243,1.721-2.517,2.517-3.777a1.015,1.015,0,0,0-.05-.89q-2.14-3.374-4.339-6.713c-.226-.344-.144-.52.243-.528h5.321a.982.982,0,0,1,.6.528c.576,1.1,1.083,2.232,1.679,3.357a5.775,5.775,0,0,0,.638.84,7.551,7.551,0,0,0,.612-.756c.647-1.184,1.259-2.383,1.914-3.567a.763.763,0,0,1,.528-.361H98.2a2.358,2.358,0,0,1,.478.084ZM73.229,63.834H75.59a.5.5,0,0,0,.576-.68,2.837,2.837,0,0,0-.991-1.837,2.971,2.971,0,0,0-4.825,1.745c-.144.68-.075.756.629.756h2.249Z" transform="translate(-21.028 -49.991)" fill="#a71d37"/>
      <path id="Trazado_124" data-name="Trazado 124" d="M23.229,65.806V58.4a.445.445,0,0,1,.469-.528h.276c3.768,0,7.553-.05,11.3,0a4.108,4.108,0,0,1,4.38,3.456,25.294,25.294,0,0,1,.6,4.707c.1,2.333,0,4.683,0,7.016a.576.576,0,0,1-.688.72H35.679a.576.576,0,0,1-.688-.72v-6.8a18.1,18.1,0,0,0-.235-2.517,2.291,2.291,0,0,0-2.517-2.14H29.114a.6.6,0,0,0-.7.739c0,3.633,0,7.276.042,10.909a.469.469,0,0,1-.562.554H23.7a.454.454,0,0,1-.554-.546v-7.4h0Z" transform="translate(-14.327 -50.091)" fill="#a71d37"/>
      <path id="Trazado_125" data-name="Trazado 125" d="M44,57.979c.288,0,.513-.059.72-.059H49a.706.706,0,0,1,.84.562c.638,2.208,1.3,4.415,1.93,6.624.369,1.276.72,2.56,1.107,3.835a1.973,1.973,0,0,0,.344.5,2.384,2.384,0,0,0,.269-.546c.629-2.115,1.243-4.2,1.863-6.353.386-1.309.8-2.618,1.175-3.927a.84.84,0,0,1,.973-.72c1.259.042,2.517,0,3.784,0,.629,0,.647,0,.432.6q-1.679,4.558-3.407,9.114-1.032,2.8-2.039,5.6a.72.72,0,0,1-.772.554H50.4a.72.72,0,0,1-.756-.5c-.932-2.517-1.855-5.1-2.8-7.645-.68-1.829-1.392-3.642-2.081-5.472C44.513,59.448,44.276,58.751,44,57.979Z" transform="translate(-17.681 -50.095)" fill="#a71d37"/>
      <path id="Trazado_126" data-name="Trazado 126" d="M120.709,64.941a4.488,4.488,0,0,0,.588.318,3.768,3.768,0,0,1,2.51,3.516,4.146,4.146,0,0,1-1.368,3.591,5.2,5.2,0,0,1-3.1,1.25c-2.16.118-4.347.084-6.52.118a.419.419,0,0,1-.454-.528c0-1.1,0-2.19,0-3.29v-11.9c0-.84,0-.84.84-.84h3.944a9.87,9.87,0,0,1,3.55.52,3.525,3.525,0,0,1,2.267,3.247,7.552,7.552,0,0,1-.288,2.03,2.694,2.694,0,0,1-1.594,1.6,1.116,1.116,0,0,0-.235.134,1.057,1.057,0,0,0-.144.226ZM114,68.918v2.635a.511.511,0,0,0,.612.621h2.467a9,9,0,0,0,2.92-.336,2.988,2.988,0,0,0,1.477-4.6,3.626,3.626,0,0,0-2.677-1.427c-1.418-.118-2.845-.084-4.271-.109a.478.478,0,0,0-.537.588c.05.873.033,1.754.033,2.627Zm0-7.461h0V63.6a.546.546,0,0,0,.655.655c.932,0,1.872.042,2.8,0a8.2,8.2,0,0,0,2.081-.395,2.592,2.592,0,0,0-.277-4.977c-1.57-.168-3.168-.16-4.752-.2a.5.5,0,0,0-.5.6c.024.72.024,1.452.024,2.182Z" transform="translate(-28.671 -49.983)"/>
      <path id="Trazado_127" data-name="Trazado 127" d="M17.926,65.836v7.4a.432.432,0,0,1-.478.513h-4.28a.454.454,0,0,1-.52-.537V58.4a.432.432,0,0,1,.478-.511h4.28a.454.454,0,0,1,.513.546v7.4h0Z" transform="translate(-12.639 -50.097)" fill="#a71d37"/>
      <path id="Trazado_128" data-name="Trazado 128" d="M138.26,69.761v3.784a1.334,1.334,0,0,0,.05.377c.118.377.21.739-.361.84-.772.109-1.032-.059-1.092-.671a2.106,2.106,0,0,0-.2-.52,2.116,2.116,0,0,0-.432.261,4.608,4.608,0,0,1-3.584,1.208,7.335,7.335,0,0,1-2.3-.612,2.626,2.626,0,0,1-1.584-2.517,2.7,2.7,0,0,1,1.493-2.778,10.414,10.414,0,0,1,2.745-.84,25.177,25.177,0,0,1,3.168-.193.52.52,0,0,0,.6-.5,2.291,2.291,0,0,0-1.452-2.341,5.04,5.04,0,0,0-4.632.621c-.432.288-.763.193-1.133-.336s0-.612.288-.84a6.713,6.713,0,0,1,4.5-1.048,7.075,7.075,0,0,1,2.282.655,3.08,3.08,0,0,1,1.594,2.87c.042.84,0,1.679,0,2.576h.068Zm-2.912-.432h0a20.141,20.141,0,0,0-2.016.144,4.264,4.264,0,0,0-2.517,1.083,1.679,1.679,0,0,0,.05,2.35,3.7,3.7,0,0,0,5.875-2.249c.134-1.276.1-1.309-1.142-1.309h-.219Z" transform="translate(-31.3 -51.017)"/>
      <path id="Trazado_129" data-name="Trazado 129" d="M183.546,69.274a5.55,5.55,0,0,1-5.959,5.748,5.7,5.7,0,1,1-.009-11.389,5.579,5.579,0,0,1,5.967,5.64Zm-6.021,4.332a4.32,4.32,0,0,0,0-8.64,4.129,4.129,0,0,0-4.422,4.356,4.2,4.2,0,0,0,4.422,4.288Z" transform="translate(-38.182 -51.025)"/>
      <path id="Trazado_130" data-name="Trazado 130" d="M145.332,65.428a1.133,1.133,0,0,0,.235-.184c1.377-2.048,5.04-2.065,6.624-.73a3.508,3.508,0,0,1,1.234,2.6c.092,1.93.075,3.869.1,5.808v1.368a.377.377,0,0,1-.432.432c-1.342,0-1.184,0-1.184-1.074V68.006a4.926,4.926,0,0,0-.4-1.745,2.517,2.517,0,0,0-2.609-1.326,3.9,3.9,0,0,0-3.659,4.2v4.883a.576.576,0,0,1-.688.72c-.781,0-.84-.068-.84-.7V68.383c0-1.276-.068-2.517-.118-3.835,0-.445.084-.688.588-.7.84,0,.973,0,.991.629v.763A.576.576,0,0,0,145.332,65.428Z" transform="translate(-33.697 -51.016)"/>
      <path id="Trazado_131" data-name="Trazado 131" d="M158.387,69.534A5.278,5.278,0,0,1,161.5,64.2a6.068,6.068,0,0,1,6.84.973.576.576,0,0,1,.16.3,4.951,4.951,0,0,1-.881.772.647.647,0,0,1-.576-.144,4.2,4.2,0,0,0-2.16-1.107,4.347,4.347,0,0,0-3.986,7.092,4,4,0,0,0,2.929,1.511,4.054,4.054,0,0,0,3.205-1.092c.412-.369.763-.268,1.284.327.344.386,0,.588-.243.8a5.581,5.581,0,0,1-4.683,1.3,5.689,5.689,0,0,1-4.2-2.609,4.725,4.725,0,0,1-.806-2.781Z" transform="translate(-36.078 -51.009)"/>
      <path id="Trazado_132" data-name="Trazado 132" d="M15.283,53.258h-2.03a.513.513,0,0,1-.6-.629v-3.29a.588.588,0,0,1,.7-.72H17.3a.528.528,0,0,1,.612.638v3.456a.478.478,0,0,1-.562.554Z" transform="translate(-12.638 -48.604)" fill="#a71d37"/>
    </g>
  </g>
</svg>
