<svg xmlns="http://www.w3.org/2000/svg" width="31" height="30" viewBox="0 0 31 30">
    <defs>
        <linearGradient id="a" x1="58.45%" x2="39.641%" y1="86.182%" y2="5.645%">
            <stop offset="0%" stop-color="#F7F5DF"/>
            <stop offset="30.08%" stop-color="#EBEAAC"/>
            <stop offset="46.02%" stop-color="#E6E596"/>
            <stop offset="49.15%" stop-color="#E6DE76"/>
            <stop offset="55.97%" stop-color="#E7CB26"/>
            <stop offset="56.26%" stop-color="#E7CA22"/>
            <stop offset="68.29%" stop-color="#ECCD10"/>
            <stop offset="81.65%" stop-color="#F0CF04"/>
            <stop offset="94.82%" stop-color="#F1D000"/>
        </linearGradient>
    </defs>
    <g fill="none" fill-rule="evenodd">
        <path fill="#000" d="M13.941 29.559c-.265 0-.53-.088-.706-.265L.705 16.764c-.352-.44-.352-1.058 0-1.411l14.03-14.03c.441-.44 1.5-.882 2.206-.882L27.53 1.5c.618 0 1.06.441 1.06 1.059l1.058 10.676c0 .618-.441 1.677-.882 2.118l-14.03 13.941c-.264.177-.44.265-.794.265z"/>
        <path fill="#FFDC20" fill-rule="nonzero" d="M16.853.882l10.588 1.06c.353 0 .618.264.618.617l1.059 10.588c0 .618-.353 1.412-.794 1.853L14.382 28.941a.674.674 0 0 1-.44.177c-.177 0-.266-.089-.442-.177L1.059 16.411c-.265-.264-.265-.617 0-.793L15 1.676c.441-.44 1.235-.794 1.853-.794zm0-.882c-.794 0-1.941.441-2.47 1.059L.44 15c-.53.53-.53 1.5 0 2.03l12.53 12.529c.264.265.617.441 1.058.441.353 0 .706-.176 1.06-.441l13.94-13.941c.53-.53 1.06-1.677 1.06-2.47L28.94 2.47c0-.795-.617-1.5-1.5-1.5L16.853 0z"/>
        <g>
            <path fill="#D48348" d="M14.824 15.088l.352-.97h-3.529l.706.97h2.206z"/>
            <path fill="#CF7324" d="M10.853 24.706L22.412 10.94v1.5z"/>
            <path fill="#C54724" d="M19.588 10.853l4.853-5.206V3.53l-.088.089-6.088 7.323H19.5z"/>
            <path fill="url(#a)" d="M6.706 0h7.147L7.676 7.412h4.148L.264 21.176l4.324-10.588h-3.53z" transform="translate(10.588 3.53)"/>
        </g>
    </g>
</svg>
