<svg xmlns="http://www.w3.org/2000/svg" width="43" height="34" viewBox="0 0 43 34">
    <defs>
        <linearGradient id="a" x1="70.523%" x2="24.84%" y1="86.182%" y2="5.645%">
            <stop offset="0%" stop-color="#F7F5DF"/>
            <stop offset="30.08%" stop-color="#EBEAAC"/>
            <stop offset="46.02%" stop-color="#E6E596"/>
            <stop offset="49.15%" stop-color="#E6DE76"/>
            <stop offset="55.97%" stop-color="#E7CB26"/>
            <stop offset="56.26%" stop-color="#E7CA22"/>
            <stop offset="68.29%" stop-color="#ECCD10"/>
            <stop offset="81.65%" stop-color="#F0CF04"/>
            <stop offset="94.82%" stop-color="#F1D000"/>
        </linearGradient>
    </defs>
    <g fill="none" fill-rule="evenodd">
        <path fill="#000" d="M23.8 33.5c-.3 0-.6-.1-.8-.3L8.8 19c-.4-.5-.4-1.2 0-1.6L24.7 1.5c.5-.5 1.7-1 2.5-1l12 1.2c.7 0 1.2.5 1.2 1.2L41.6 15c0 .7-.5 1.9-1 2.4L24.7 33.2c-.3.2-.5.3-.9.3z"/>
        <path fill="#FFDC20" fill-rule="nonzero" d="M27.1 1l12 1.2c.4 0 .7.3.7.7l1.2 12c0 .7-.4 1.6-.9 2.1L24.3 32.8c-.1.1-.3.2-.5.2s-.3-.1-.5-.2L9.2 18.6c-.3-.3-.3-.7 0-.9L25 1.9c.5-.5 1.4-.9 2.1-.9zm0-1c-.9 0-2.2.5-2.8 1.2L8.5 17c-.6.6-.6 1.7 0 2.3l14.2 14.2c.3.3.7.5 1.2.5.4 0 .8-.2 1.2-.5l15.8-15.8c.6-.6 1.2-1.9 1.2-2.8L40.8 2.8c0-.9-.7-1.7-1.7-1.7L27.1 0z"/>
        <path fill="#D48348" d="M24.8 17.1l.4-1.1h-4l.8 1.1h2.5z"/>
        <path fill="#CF7324" d="M20.3 28l13.1-15.6v1.7z"/>
        <path fill="#C54724" d="M30.2 12.3l5.5-5.9V4l-.1.1-6.9 8.3h1.4z"/>
        <path fill="url(#a)" d="M7.6 0h8.1l-7 8.4h4.7L.3 24l4.9-12h-4z" transform="translate(20 4)"/>
        <path fill="#FFDC20" d="M23.5 33H1l-1 1h24zM26.9 0H19l-1 1h6.5c.6-.5 1.6-.9 2.4-1zM21.5 4H16l-1 1h5.5z" opacity=".5"/>
        <g fill="#FFDC20" opacity=".5">
            <path d="M17.5 8H13l-1 1h4.5z"/>
        </g>
        <g fill="#FFDC20" opacity=".5">
            <path d="M10.2 21H7l-1 1h5.2z"/>
        </g>
        <g fill="#FFDC20" opacity=".5">
            <path d="M14.2 25H5l-1 1h11.2z"/>
        </g>
        <g fill="#FFDC20" opacity=".5">
            <path d="M18.2 29H3l-1 1h17.2z"/>
        </g>
        <g fill="#FFDC20" opacity=".5">
            <path d="M13.5 12H11l-1 1h2.5z"/>
        </g>
    </g>
</svg>
