<svg xmlns="http://www.w3.org/2000/svg" xmlns:xlink="http://www.w3.org/1999/xlink" width="64" height="32" viewBox="0 0 96 48">
    <defs>
        <path id="a" d="M0 .023h27.203v32.983H0z"/>
        <path id="c" d="M.07.023h27.203v32.983H.07z"/>
    </defs>
    <g fill="none" fill-rule="evenodd">
        <path fill="#1D1D1B" d="M30.293 40.645a1.589 1.589 0 0 0-.537-.39 1.648 1.648 0 0 0-.68-.139c-.131 0-.267.013-.407.038a1.54 1.54 0 0 0-.798.392 1.542 1.542 0 0 0-.318.42 1.63 1.63 0 0 0-.59-.624 1.604 1.604 0 0 0-.85-.226c-.107 0-.218.011-.332.033a1.36 1.36 0 0 0-.665.328 1.472 1.472 0 0 0-.281.345v-.581h-.905V45h.913v-2.638c0-.202.03-.382.088-.54a1.18 1.18 0 0 1 .232-.394.961.961 0 0 1 .342-.241c.13-.055.27-.082.417-.082.307 0 .546.108.716.323.17.215.254.523.254.924V45h.914v-2.638c0-.202.028-.382.087-.54.058-.156.135-.288.232-.394a.964.964 0 0 1 .342-.241c.13-.055.27-.082.417-.082.308 0 .546.108.716.323.17.215.254.523.254.924V45h.913v-2.99c0-.279-.04-.534-.123-.766a1.77 1.77 0 0 0-.35-.599M35.556 43.15a1.352 1.352 0 0 1-.74.783 1.447 1.447 0 0 1-.583.113c-.224 0-.424-.04-.6-.119a1.332 1.332 0 0 1-.728-.792 1.672 1.672 0 0 1-.1-.577c0-.203.034-.395.1-.576a1.332 1.332 0 0 1 .728-.792c.176-.08.376-.12.6-.12.214 0 .408.039.583.115a1.355 1.355 0 0 1 .74.782c.07.181.104.378.104.591 0 .213-.034.41-.104.591zm.04-2.35a1.842 1.842 0 0 0-.613-.497 1.902 1.902 0 0 0-.874-.187c-.332 0-.641.061-.928.182a2.308 2.308 0 0 0-1.254 1.28 2.578 2.578 0 0 0-.183.98c0 .356.061.683.183.981.122.299.29.557.503.773.215.216.465.385.751.506.287.121.596.182.928.182.34 0 .63-.061.874-.184s.448-.288.613-.494v.557h1.032v-4.642h-1.032v.562zM40.129 42.55c-.27-.22-.647-.369-1.13-.443l-.457-.073a3.803 3.803 0 0 1-.286-.056.899.899 0 0 1-.23-.085.446.446 0 0 1-.155-.136.347.347 0 0 1-.058-.204c0-.165.073-.298.22-.4.146-.102.35-.153.615-.153.139 0 .275.013.408.039.134.026.261.058.381.097a2.689 2.689 0 0 1 .577.262l.415-.791c-.23-.156-.5-.276-.807-.362a3.648 3.648 0 0 0-.983-.129c-.283 0-.537.035-.761.105-.225.07-.416.168-.574.296-.159.128-.28.284-.365.468a1.474 1.474 0 0 0-.127.622c0 .375.127.678.38.91.255.231.627.383 1.12.454l.46.063c.265.039.459.101.582.187.123.086.185.195.185.327 0 .175-.085.314-.254.415-.17.102-.42.154-.752.154-.181 0-.344-.014-.487-.04a2.337 2.337 0 0 1-.392-.104 1.848 1.848 0 0 1-.318-.15 2.291 2.291 0 0 1-.26-.182l-.448.762c.16.126.327.228.503.306a3.38 3.38 0 0 0 .996.27c.15.014.283.021.397.021.317 0 .6-.037.85-.112.252-.074.462-.178.633-.313.17-.134.301-.294.392-.48.09-.186.136-.391.136-.614 0-.399-.135-.709-.406-.93M47.315 42.161c.023-.168.062-.322.118-.463.056-.14.128-.262.216-.363a.904.904 0 0 1 .315-.235c.122-.055.262-.083.418-.083.28 0 .509.1.685.3.177.201.288.482.336.844h-2.088zm2.456-1.369a1.686 1.686 0 0 0-1.372-.676c-.297 0-.568.06-.812.177a1.847 1.847 0 0 0-.633.5 2.353 2.353 0 0 0-.412.772c-.098.3-.147.631-.147.993 0 .368.05.703.152 1.003.1.3.242.557.424.77a1.888 1.888 0 0 0 1.483.669c.305 0 .596-.048.872-.145a2.13 2.13 0 0 0 .783-.509l-.437-.722a1.91 1.91 0 0 1-.557.361 1.55 1.55 0 0 1-.607.128c-.143 0-.28-.022-.411-.067a1.03 1.03 0 0 1-.357-.211 1.24 1.24 0 0 1-.274-.366 1.668 1.668 0 0 1-.155-.538h2.974a3.592 3.592 0 0 0 .017-.378c0-.361-.047-.692-.14-.99a2.433 2.433 0 0 0-.391-.77zM61.928 43.15a1.355 1.355 0 0 1-.74.783 1.446 1.446 0 0 1-.583.113 1.45 1.45 0 0 1-.6-.119 1.333 1.333 0 0 1-.728-.792 1.672 1.672 0 0 1-.099-.577c0-.203.033-.395.099-.576a1.332 1.332 0 0 1 .729-.792c.175-.08.375-.12.599-.12.214 0 .408.039.583.115a1.359 1.359 0 0 1 .74.782c.07.181.104.378.104.591 0 .213-.034.41-.104.591zm.04-2.35a1.842 1.842 0 0 0-.613-.497 1.9 1.9 0 0 0-.873-.187c-.333 0-.642.061-.929.182a2.31 2.31 0 0 0-1.254 1.28 2.573 2.573 0 0 0-.183.98c0 .356.061.683.183.981a2.313 2.313 0 0 0 1.254 1.28c.287.12.596.181.929.181.339 0 .63-.061.873-.184.244-.123.448-.288.613-.494v.557H63v-4.642h-1.032v.562zM44.748 44.006a1.493 1.493 0 0 1-.494.087.911.911 0 0 1-.295-.046.62.62 0 0 1-.238-.145.693.693 0 0 1-.161-.255c-.04-.105-.06-.23-.06-.378v-1.92h1.665v-.874H43.5V39.14H42.46v1.335h-.947v.874h.947v1.939c0 .586.15 1.018.449 1.295.299.278.718.417 1.257.417.3 0 .57-.043.81-.129.16-.056.306-.122.444-.193l-.355-.806c-.1.05-.205.095-.316.134M53.542 40.116c-.283 0-.54.053-.769.16-.229.105-.42.36-.576.59v-.625h-.918V45h.928v-2.618c0-.202.028-.383.082-.542a1.18 1.18 0 0 1 .228-.402.939.939 0 0 1 .348-.248c.136-.057.284-.085.445-.085a1.928 1.928 0 0 1 .6.1l.3-.993a1.813 1.813 0 0 0-.249-.063 2.455 2.455 0 0 0-.419-.033M66.24 40.116c-.284 0-.54.053-.77.16-.228.105-.42.36-.575.59v-.625h-.918V45h.928v-2.618c0-.202.027-.383.082-.542a1.18 1.18 0 0 1 .227-.402.942.942 0 0 1 .349-.248c.135-.057.283-.085.445-.085a1.928 1.928 0 0 1 .6.1l.299-.993a1.83 1.83 0 0 0-.248-.063 2.457 2.457 0 0 0-.419-.033M70.72 43.369c-.07.16-.167.297-.292.414a1.37 1.37 0 0 1-.45.275c-.174.067-.368.1-.582.1-.224 0-.424-.034-.6-.104a1.342 1.342 0 0 1-.447-.282 1.222 1.222 0 0 1-.282-.416 1.314 1.314 0 0 1-.098-.508c0-.18.032-.349.098-.508.066-.16.16-.299.282-.417.122-.118.27-.212.447-.281.176-.07.376-.105.6-.105.214 0 .408.033.582.1.175.067.325.159.45.276.125.117.222.255.291.414.07.16.104.333.104.52 0 .189-.035.362-.104.522zm.038-4.23v2.159a1.818 1.818 0 0 0-.612-.438 2.12 2.12 0 0 0-.874-.165c-.332 0-.642.054-.928.16a2.345 2.345 0 0 0-.75.447 2.034 2.034 0 0 0-.686 1.546 2.032 2.032 0 0 0 .685 1.546c.214.19.464.339.75.446.287.107.597.16.93.16.338 0 .63-.054.873-.162.244-.108.448-.254.612-.436v.491h1.033V39.14h-1.033z"/>
        <path fill="#1D1D1B" d="M55.596 41.485c.123-.13.269-.232.438-.305.169-.073.352-.11.548-.11.216 0 .417.037.603.11.18.07.336.168.468.293l.463-.811a2.345 2.345 0 0 0-1.534-.546 2.38 2.38 0 0 0-.947.187c-.29.124-.54.295-.75.514-.21.218-.376.475-.496.772-.12.298-.18.62-.18.97 0 .348.06.671.18.968.12.298.285.555.495.773.21.218.461.39.751.514s.606.186.947.186a2.338 2.338 0 0 0 1.534-.545l-.463-.811a1.434 1.434 0 0 1-.468.293 1.645 1.645 0 0 1-.603.109c-.196 0-.38-.037-.548-.11a1.291 1.291 0 0 1-.438-.305 1.43 1.43 0 0 1-.29-.47 1.66 1.66 0 0 1-.106-.603c0-.22.035-.42.106-.603.07-.182.167-.34.29-.47"/>
        <g transform="translate(21 3)">
            <mask id="b" fill="#fff">
                <use xlink:href="#a"/>
            </mask>
            <path fill="#E30E17" d="M20.828 16.514c0-5.242 2.493-9.91 6.375-12.93A16.904 16.904 0 0 0 16.789.023C7.517.023 0 7.406 0 16.514s7.517 16.492 16.79 16.492c3.935 0 7.55-1.334 10.413-3.561-3.882-3.02-6.375-7.688-6.375-12.93" mask="url(#b)"/>
        </g>
        <path fill="#EA600A" d="M41.512 20.093a16.818 16.818 0 0 0 6.348 13.186 16.818 16.818 0 0 0 6.35-13.186 16.818 16.818 0 0 0-6.35-13.186 16.819 16.819 0 0 0-6.348 13.186"/>
        <g transform="translate(47.372 3)">
            <mask id="d" fill="#fff">
                <use xlink:href="#c"/>
            </mask>
            <path fill="#F59F00" d="M10.484.023A16.905 16.905 0 0 0 .07 3.583c3.882 3.021 6.375 7.69 6.375 12.931 0 5.243-2.493 9.91-6.375 12.93a16.904 16.904 0 0 0 10.414 3.562c9.272 0 16.789-7.384 16.789-16.492 0-9.107-7.517-16.49-16.79-16.49" mask="url(#d)"/>
        </g>
    </g>
</svg>
