<svg xmlns="http://www.w3.org/2000/svg" width="158" height="72" viewBox="0 0 158 72">
  <g id="MERCADOPAGO" transform="translate(-283 -391)">
    <rect id="Rectángulo_1" data-name="Rectángulo 1" width="158" height="72" transform="translate(283 391)" fill="#aaa7ff" opacity="0"/>
    <g id="Grupo_9567" data-name="Grupo 9567" transform="translate(293.08 409.72)">
      <path id="Trazado_4484" data-name="Trazado 4484" d="M329.152,101.452c0-9.03-11.222-16.392-25.065-16.392s-25.065,7.363-25.065,16.392v.96c0,9.582,9.806,17.342,25.056,17.342,15.348,0,25.068-7.759,25.068-17.338C329.152,102.076,329.152,101.885,329.152,101.452Z" transform="translate(-279.023 -85.06)" fill="#2d3277"/>
      <path id="Trazado_4485" data-name="Trazado 4485" d="M329.911,103.145c0,8.513-10.789,15.417-24.1,15.417s-24.1-6.9-24.1-15.417,10.789-15.417,24.1-15.417S329.911,94.633,329.911,103.145Z" transform="translate(-280.741 -86.766)" fill="#009ee3"/>
      <path id="Trazado_4486" data-name="Trazado 4486" d="M326.046,107.082c-.014.024-.253.274-.1.474a3.007,3.007,0,0,0,2.736.5,7.944,7.944,0,0,0,2.491-1.584,10.081,10.081,0,0,1,2.848-1.816,3.237,3.237,0,0,1,2.082-.053A6.464,6.464,0,0,1,338,105.7c1.65,1.238,8.28,7.026,9.422,8.027a57.52,57.52,0,0,1,10.6-3.411,13.127,13.127,0,0,0-5.04-7.92,15.48,15.48,0,0,1-13.052.213,12.653,12.653,0,0,0-4.931-1.123,8.833,8.833,0,0,0-6.853,3.312Z" transform="translate(-308.973 -95.564)" fill="#fff"/>
      <path id="Trazado_4487" data-name="Trazado 4487" d="M319.239,115.088c-.076-.069-7.795-6.824-9.546-8.137a4.286,4.286,0,0,0-2.16-1.028,3,3,0,0,0-1.028.1,9.238,9.238,0,0,0-2.82,1.683,8.033,8.033,0,0,1-2.755,1.7,4.455,4.455,0,0,1-3.037-.455,1.384,1.384,0,0,1-.505-.547.94.94,0,0,1,.256-1.008l2.13-2.3c.249-.245.5-.494.752-.736a13.881,13.881,0,0,0-1.943.432,8.5,8.5,0,0,1-2.264.423,21.462,21.462,0,0,1-2.3-.361,34.425,34.425,0,0,1-6.144-2.22,13.614,13.614,0,0,0-5.64,8.178c.432.115,1.138.328,1.43.39,6.853,1.524,8.984,3.095,9.373,3.42a2.268,2.268,0,0,1,3.557.209,2.592,2.592,0,0,1,1.633-.576,2.978,2.978,0,0,1,.978.173,2.246,2.246,0,0,1,1.38,1.246,2.325,2.325,0,0,1,.953-.2,2.854,2.854,0,0,1,1.14.253,2.438,2.438,0,0,1,1.346,2.719,2.28,2.28,0,0,1,.271-.014,2.713,2.713,0,0,1,2.39,4,4.33,4.33,0,0,0,2.357.632,1.5,1.5,0,0,0,1.1-.48c.069-.1.144-.209.072-.288l-1.932-2.16s-.318-.3-.213-.419.307.05.444.17c.986.822,2.184,2.062,2.184,2.062.022.014.1.17.547.249a2,2,0,0,0,1.528-.357,2.323,2.323,0,0,0,.336-.343.093.093,0,0,1-.022.017,1.031,1.031,0,0,0-.053-1.274l-2.256-2.534s-.321-.3-.213-.419.307.053.448.17c.72.6,1.728,1.61,2.693,2.56a1.842,1.842,0,0,0,2.16-.075,1.56,1.56,0,0,0,.8-1.416,1.617,1.617,0,0,0-.477-.942l-3.083-3.1s-.328-.278-.209-.419c.094-.12.307.05.444.17.986.822,3.643,3.26,3.643,3.26a1.862,1.862,0,0,0,2.091-.043,1.4,1.4,0,0,0,.685-1.1,1.615,1.615,0,0,0-.514-1.266Z" transform="translate(-281.063 -96.289)" fill="#fff"/>
      <path id="Trazado_4488" data-name="Trazado 4488" d="M323.439,139.946a6.479,6.479,0,0,0-1.068.238c-.036-.024.029-.219.076-.328s.675-2-.864-2.661a1.8,1.8,0,0,0-2.137.318c-.065.069-.094.062-.1-.026a1.7,1.7,0,0,0-1.192-1.574,2.326,2.326,0,0,0-2.618.932,1.67,1.67,0,1,0-.494,1.424c.011.007.014.024.007.058a2.207,2.207,0,0,0,1.382,2.542,1.656,1.656,0,0,0,1.621-.249c.134-.094.156-.053.144.072a1.575,1.575,0,0,0,1.181,1.693,1.5,1.5,0,0,0,1.752-.328c.144-.144.192-.115.2.1a2.115,2.115,0,1,0,2.11-2.213Z" transform="translate(-300.224 -117.21)" fill="#fff"/>
      <path id="Trazado_4489" data-name="Trazado 4489" d="M319.276,112.129c-2.375-2.076-7.871-6.853-9.36-7.968a6.541,6.541,0,0,0-1.94-1.13,3.213,3.213,0,0,0-.953-.144,4.054,4.054,0,0,0-1.205.2,9.859,9.859,0,0,0-2.848,1.8l-.047.036a7.876,7.876,0,0,1-2.429,1.549,4.21,4.21,0,0,1-.9.1,2.3,2.3,0,0,1-1.689-.547c-.043-.053-.014-.144.083-.268l.014-.017,2.091-2.252a8.7,8.7,0,0,1,6.748-3.267h.176a12.591,12.591,0,0,1,4.683,1.109,14.471,14.471,0,0,0,6.379,1.534,16.661,16.661,0,0,0,7-1.679c-.271-.228-.556-.451-.848-.671a15.448,15.448,0,0,1-6.153,1.4,13.536,13.536,0,0,1-5.972-1.44,13.408,13.408,0,0,0-5.1-1.205h-.2A8.852,8.852,0,0,0,301,101.332a11.5,11.5,0,0,0-2.9.527,7.879,7.879,0,0,1-2.043.39c-.264,0-.733-.026-.776-.026a39.55,39.55,0,0,1-7.344-2.036c-.3.213-.589.432-.864.658a36.254,36.254,0,0,0,7.965,2.3c.328.022.675.058,1.025.058a8.64,8.64,0,0,0,2.3-.432c.444-.125.932-.259,1.449-.357-.144.134-.274.271-.412.408l-2.127,2.3a1.071,1.071,0,0,0-.288,1.174,1.493,1.493,0,0,0,.56.621,4.433,4.433,0,0,0,2.257.576,4.184,4.184,0,0,0,.9-.094,8.19,8.19,0,0,0,2.817-1.728,9.361,9.361,0,0,1,2.765-1.657,3.152,3.152,0,0,1,.768-.109,1.69,1.69,0,0,1,.2.012,4.147,4.147,0,0,1,2.094,1c1.744,1.315,9.464,8.064,9.539,8.132a1.485,1.485,0,0,1,.462,1.133,1.237,1.237,0,0,1-.618.986,1.861,1.861,0,0,1-1.008.314,1.651,1.651,0,0,1-.9-.259c-.029-.022-2.673-2.448-3.646-3.263a.813.813,0,0,0-.459-.245.252.252,0,0,0-.2.094c-.144.187.017.451.219.621l3.09,3.1a1.461,1.461,0,0,1,.432.838,1.407,1.407,0,0,1-.733,1.282,2,2,0,0,1-1.1.361,1.6,1.6,0,0,1-.877-.268l-.444-.432c-.808-.8-1.643-1.621-2.256-2.13a.831.831,0,0,0-.462-.239.262.262,0,0,0-.194.083c-.069.075-.12.219.053.448a1.759,1.759,0,0,0,.156.173l2.252,2.53a.864.864,0,0,1,.05,1.079l-.081.1a2.166,2.166,0,0,1-.209.2,1.82,1.82,0,0,1-1.1.35,1.942,1.942,0,0,1-.3-.026.752.752,0,0,1-.444-.187l-.029-.029c-.122-.125-1.26-1.3-2.2-2.072a.768.768,0,0,0-.432-.235.271.271,0,0,0-.2.089c-.187.2.094.51.213.621l1.925,2.118a.494.494,0,0,1-.072.131c-.069.094-.3.328-1,.415a1.992,1.992,0,0,1-.256.014,4.39,4.39,0,0,1-1.881-.56,2.867,2.867,0,0,0-2.592-4.091h-.109a2.549,2.549,0,0,0-1.454-2.693,3.05,3.05,0,0,0-1.2-.264,2.456,2.456,0,0,0-.877.158,2.4,2.4,0,0,0-1.4-1.192,3.168,3.168,0,0,0-1.028-.181,2.724,2.724,0,0,0-1.6.513,2.419,2.419,0,0,0-3.6-.2c-.6-.459-2.971-1.964-9.326-3.408-.307-.069-1.008-.271-1.447-.4a10.088,10.088,0,0,0-.163,1.043s1.174.288,1.4.328c6.492,1.44,8.64,2.943,9,3.224a2.432,2.432,0,0,0,2.246,3.37,2.643,2.643,0,0,0,.448-.039,2.838,2.838,0,0,0,1.835,2.118,2.4,2.4,0,0,0,.864.167,2.2,2.2,0,0,0,.549-.069,2.83,2.83,0,0,0,2.465,1.61,2.083,2.083,0,0,0,.745-.134,2.861,2.861,0,0,0,4.7.909,5.441,5.441,0,0,0,2.431.72c.125,0,.249-.012.369-.022a2.222,2.222,0,0,0,1.643-.8,1.272,1.272,0,0,0,.1-.167,2.821,2.821,0,0,0,.776.122,2.645,2.645,0,0,0,1.571-.56,2.16,2.16,0,0,0,.924-1.346.163.163,0,0,1,0-.017,2.578,2.578,0,0,0,.524.053,2.928,2.928,0,0,0,1.614-.513,2.334,2.334,0,0,0,1.152-2.072,2.622,2.622,0,0,0,.53.053,2.771,2.771,0,0,0,1.509-.465,2.212,2.212,0,0,0,1.051-1.708,2.3,2.3,0,0,0-.328-1.38,62.3,62.3,0,0,1,10.012-3.135,10.16,10.16,0,0,0-.144-1.04,58.512,58.512,0,0,0-10.535,3.456Zm-15.255,8.817a1.95,1.95,0,0,1-1.961-1.872c0-.089-.011-.328-.213-.328a.371.371,0,0,0-.239.125,1.377,1.377,0,0,1-.965.432,1.741,1.741,0,0,1-.635-.144c-1.12-.451-1.133-1.221-1.1-1.534a.288.288,0,0,0-.039-.235l-.069-.062h-.069a.328.328,0,0,0-.194.079,1.643,1.643,0,0,1-.95.34,1.491,1.491,0,0,1-.53-.109,2.056,2.056,0,0,1-1.286-2.383.2.2,0,0,0-.065-.194l-.109-.086-.1.094a1.512,1.512,0,0,1-1.058.432,1.534,1.534,0,1,1,1.509-1.728l.053.412.219-.346a2.246,2.246,0,0,1,1.78-.975,2.275,2.275,0,0,1,.664.109,1.549,1.549,0,0,1,1.083,1.44c.014.2.158.209.184.209a.245.245,0,0,0,.176-.094,1.545,1.545,0,0,1,1.126-.477,2.16,2.16,0,0,1,.845.192c1.44.618.786,2.448.78,2.467-.122.3-.131.432-.012.513l.058.029h.043a1.073,1.073,0,0,0,.278-.072,2.447,2.447,0,0,1,.768-.17h0a1.983,1.983,0,0,1,1.964,1.964,1.963,1.963,0,0,1-1.941,1.979Z" transform="translate(-280.805 -94.14)" fill="#2d3277"/>
      <path id="Trazado_4490" data-name="Trazado 4490" d="M637.428,98.52a5.841,5.841,0,0,0-8.24,0,6.653,6.653,0,0,0,0,8.055,5.9,5.9,0,0,0,8.24,0A6.653,6.653,0,0,0,637.428,98.52Zm-2.242,6.5a2.481,2.481,0,0,1-3.78,0,4.969,4.969,0,0,1,0-4.964,2.488,2.488,0,0,1,3.78,0A5.015,5.015,0,0,1,635.185,105.018Z" transform="translate(-501.893 -92.574)" fill="#2d3277"/>
      <path id="Trazado_4491" data-name="Trazado 4491" d="M576.011,97.664a6.86,6.86,0,0,0-3.149-.7,4.628,4.628,0,0,0-3.846,1.424,4.135,4.135,0,0,0-.795,2.318h2.714a2.024,2.024,0,0,1,.4-.986,1.793,1.793,0,0,1,1.43-.5,2.93,2.93,0,0,1,1.368.253.942.942,0,0,1,.465.909.845.845,0,0,1-.608.8,4.455,4.455,0,0,1-1.123.245l-.96.12a6.794,6.794,0,0,0-2.484.694,3.059,3.059,0,0,0-1.541,2.87,2.957,2.957,0,0,0,.956,2.362,3.8,3.8,0,0,0,2.425.834c6.134.274,6.067-3.236,6.123-3.964v-4.032a2.7,2.7,0,0,0-1.381-2.644Zm-1.424,6.127a2.252,2.252,0,0,1-.8,1.943,2.944,2.944,0,0,1-1.7.534,1.549,1.549,0,0,1-.986-.321,1.244,1.244,0,0,1-.4-1.04,1.28,1.28,0,0,1,.664-1.192,4.117,4.117,0,0,1,1.3-.383l.644-.12a4.93,4.93,0,0,0,.755-.194,2.832,2.832,0,0,0,.547-.271v1.043Z" transform="translate(-463.59 -92.665)" fill="#2d3277"/>
      <path id="Trazado_4492" data-name="Trazado 4492" d="M542.017,99.427a1.827,1.827,0,0,1,1.549.649A2.411,2.411,0,0,1,544,101.16h3.024a4.147,4.147,0,0,0-1.6-3.2,6.162,6.162,0,0,0-3.48-.906,5.08,5.08,0,0,0-3.921,1.534,6.071,6.071,0,0,0-1.424,4.293,5.992,5.992,0,0,0,1.286,3.979,4.952,4.952,0,0,0,4.015,1.534,4.841,4.841,0,0,0,4.12-1.837,4.533,4.533,0,0,0,.975-2.419h-3.024a2.56,2.56,0,0,1-.53,1.38,1.81,1.81,0,0,1-1.478.53,1.971,1.971,0,0,1-2-1.339,5.086,5.086,0,0,1-.288-1.892,5.55,5.55,0,0,1,.288-1.981,2.049,2.049,0,0,1,2.054-1.407Z" transform="translate(-443.595 -92.72)" fill="#2d3277"/>
      <path id="Trazado_4493" data-name="Trazado 4493" d="M523.982,97.06c-6.218,0-5.849,5.507-5.849,5.507v5.587h2.824v-5.243a4.294,4.294,0,0,1,.328-1.909,2.325,2.325,0,0,1,2.271-1.1q.125,0,.337.012c.144.007.288.017.474.039V97.082l-.242-.014C524.087,97.064,524.036,97.06,523.982,97.06Z" transform="translate(-431.801 -92.727)" fill="#2d3277"/>
      <path id="Trazado_4494" data-name="Trazado 4494" d="M492.489,105.232a2.016,2.016,0,0,1-.387.432,2.4,2.4,0,0,1-1.584.432,2.661,2.661,0,0,1-1.5-.361,2.537,2.537,0,0,1-1.141-2.238h7.806a13.968,13.968,0,0,0-.094-2.127,5.281,5.281,0,0,0-.852-2.216,4.369,4.369,0,0,0-1.853-1.584,6.134,6.134,0,0,0-2.52-.5,5.173,5.173,0,0,0-3.835,1.483,5.806,5.806,0,0,0-1.48,4.272,5.193,5.193,0,0,0,1.643,4.293,5.855,5.855,0,0,0,3.776,1.315,5.2,5.2,0,0,0,4.032-1.564,3.8,3.8,0,0,0,.978-1.629Zm-3.794-5.259a2.223,2.223,0,0,1,1.672-.613,2.459,2.459,0,0,1,1.665.576,2.333,2.333,0,0,1,.745,1.693h-4.827a2.922,2.922,0,0,1,.747-1.652Z" transform="translate(-410.669 -92.724)" fill="#2d3277"/>
      <path id="Trazado_4495" data-name="Trazado 4495" d="M454.645,108.092h-2.578V101.6a1.811,1.811,0,0,0-1.9-2,1.9,1.9,0,0,0-1.953,2v6.492h-2.58V101.6a1.794,1.794,0,0,0-1.872-2,1.888,1.888,0,0,0-1.954,2v6.492h-2.581v-6.427a4.422,4.422,0,0,1,4.535-4.7,3.975,3.975,0,0,1,3.2,1.5,4.107,4.107,0,0,1,3.2-1.495,4.3,4.3,0,0,1,4.473,4.7v6.427Z" transform="translate(-381.389 -92.664)" fill="#2d3277"/>
      <path id="Trazado_4496" data-name="Trazado 4496" d="M607.032,87.646s-2.843-.3-2.843,1.979v3.024a3.382,3.382,0,0,0-1.228-1.184,3.443,3.443,0,0,0-1.728-.432,4.113,4.113,0,0,0-3.375,1.574A6.925,6.925,0,0,0,596.593,97a5.832,5.832,0,0,0,1.282,3.9,5.442,5.442,0,0,0,4.022,1.454c5.2,0,5.134-4.455,5.134-4.455Zm-3.387,11.529a2.064,2.064,0,0,1-1.809.884,1.971,1.971,0,0,1-1.773-.891,4.54,4.54,0,0,1-.585-2.448,4.321,4.321,0,0,1,.576-2.3,1.973,1.973,0,0,1,1.806-.932,2.123,2.123,0,0,1,1.416.513,3.7,3.7,0,0,1,.992,2.88,3.887,3.887,0,0,1-.618,2.3Z" transform="translate(-481.935 -86.704)" fill="#2d3277"/>
      <path id="Trazado_4497" data-name="Trazado 4497" d="M491.3,153.746a1.322,1.322,0,0,1-.415.986,1.353,1.353,0,0,1-1,.408h-1.408v-9.808a4.517,4.517,0,0,1,1.7-3.907,5.667,5.667,0,0,1,3.689-1.043,4.954,4.954,0,0,1,3.694,1.528,6.031,6.031,0,0,1,1.325,4.08,6.594,6.594,0,0,1-1.246,4.176,3.905,3.905,0,0,1-3.2,1.555,4.259,4.259,0,0,1-1.823-.369,3.1,3.1,0,0,1-1.329-1.272v3.668Zm4.726-7.632a4.112,4.112,0,0,0-.625-2.455,2.072,2.072,0,0,0-1.784-.864,2.036,2.036,0,0,0-1.744.864,4.15,4.15,0,0,0-.576,2.448,3.67,3.67,0,0,0,.621,2.333,2.063,2.063,0,0,0,1.784.864,1.986,1.986,0,0,0,1.7-.864,3.862,3.862,0,0,0,.625-2.333" transform="translate(-412.858 -120.408)" fill="#009ee3"/>
      <path id="Trazado_4498" data-name="Trazado 4498" d="M555.974,150.746v-.691a3.108,3.108,0,0,1-1.973,1.43,4.041,4.041,0,0,1-2.462-.206,4.561,4.561,0,0,1-2.1-1.82,6.293,6.293,0,0,1-.877-3.5,6.767,6.767,0,0,1,1.152-4.108,4.452,4.452,0,0,1,3.725-1.574,5.166,5.166,0,0,1,3.626,1.066,4.547,4.547,0,0,1,1.667,3.924v5.769a4.821,4.821,0,0,1-5.3,4.949,4.64,4.64,0,0,1-4.643-3.517h3a2.278,2.278,0,0,0,2.339,1.043,2.206,2.206,0,0,0,1.224-.8,3.339,3.339,0,0,0,.632-1.971m-4.643-4.7q0,2.822,1.633,3.131a2.225,2.225,0,0,0,2.4-.757,3.04,3.04,0,0,0,.527-1.408,6.01,6.01,0,0,0,.021-1.9,3.782,3.782,0,0,0-.671-1.679,1.784,1.784,0,0,0-1.549-.736,1.872,1.872,0,0,0-1.872,1.022,5.269,5.269,0,0,0-.491,2.333" transform="translate(-451.245 -120.339)" fill="#009ee3"/>
      <path id="Trazado_4499" data-name="Trazado 4499" d="M527.487,141.2a6.862,6.862,0,0,0-3.149-.7,4.623,4.623,0,0,0-3.845,1.424,4.135,4.135,0,0,0-.795,2.318h2.714a1.985,1.985,0,0,1,.4-.986,1.79,1.79,0,0,1,1.424-.494,2.921,2.921,0,0,1,1.368.253.944.944,0,0,1,.465.914.844.844,0,0,1-.608.8,4.463,4.463,0,0,1-1.123.245l-.96.119a6.793,6.793,0,0,0-2.484.694,3.058,3.058,0,0,0-1.541,2.87,2.958,2.958,0,0,0,.956,2.362,3.784,3.784,0,0,0,2.426.834c6.136.274,6.067-3.236,6.123-3.964v-4.032a2.692,2.692,0,0,0-1.38-2.642m-1.424,6.127a2.248,2.248,0,0,1-.8,1.943,2.943,2.943,0,0,1-1.7.53,1.534,1.534,0,0,1-.986-.321,1.243,1.243,0,0,1-.4-1.04,1.28,1.28,0,0,1,.664-1.192,4.117,4.117,0,0,1,1.3-.383l.639-.12a4.306,4.306,0,0,0,.75-.194,2.748,2.748,0,0,0,.547-.271Z" transform="translate(-432.59 -120.485)" fill="#009ee3"/>
      <path id="Trazado_4500" data-name="Trazado 4500" d="M589.333,141.891a5.845,5.845,0,0,0-8.243,0,6.648,6.648,0,0,0,0,8.051,5.9,5.9,0,0,0,8.243,0,6.663,6.663,0,0,0,0-8.051m-2.246,6.5a2.212,2.212,0,0,1-1.885.877,2.235,2.235,0,0,1-1.892-.877,4.961,4.961,0,0,1,0-4.961,2.484,2.484,0,0,1,3.776,0,5.011,5.011,0,0,1,0,4.961" transform="translate(-471.168 -120.285)" fill="#009ee3"/>
    </g>
  </g>
</svg>
