<svg xmlns="http://www.w3.org/2000/svg" width="100" height="100" viewBox="0 0 100 100">
  <g id="Grupo_9034" data-name="Grupo 9034" transform="translate(-21117 6777)">
    <circle id="Elipse_89" data-name="Elipse 89" cx="50" cy="50" r="50" transform="translate(21117 -6777)" fill="#00a6ff"/>
    <path id="Trazado_3994" data-name="Trazado 3994" d="M128.675,207.71l11.815-18.463a6.093,6.093,0,0,1,8.723-1.586l9.4,6.944a2.445,2.445,0,0,0,2.905-.008l12.689-9.487a1.9,1.9,0,0,1,2.767,2.5l-11.806,18.455a6.093,6.093,0,0,1-8.723,1.586l-9.395-6.944a2.445,2.445,0,0,0-2.905.008l-12.7,9.495a1.9,1.9,0,0,1-2.767-2.5Z" transform="translate(21014.639 -6924.71)" fill="#fff" fill-rule="evenodd"/>
  </g>
</svg>
