<svg xmlns="http://www.w3.org/2000/svg" width="66.998" height="46" viewBox="0 0 66.998 46">
  <g id="Grupo_8922" data-name="Grupo 8922" transform="translate(-1216 -557)">
    <g id="Grupo_8921" data-name="Grupo 8921">
      <g id="tag" transform="translate(1216 557)">
        <path id="Trazado_3798" data-name="Trazado 3798" d="M65.783,94.172,54.316,78.657A9.671,9.671,0,0,0,47.2,75.075H5.383A5.37,5.37,0,0,0,0,80.415v35.321a5.37,5.37,0,0,0,5.383,5.34H47.2a9.624,9.624,0,0,0,7.114-3.582l11.467-15.515A6.873,6.873,0,0,0,65.783,94.172Zm-2.994,5.653L51.322,115.34a6.039,6.039,0,0,1-4.134,2.07H5.383a1.675,1.675,0,0,1-1.675-1.662V80.415a1.675,1.675,0,0,1,1.675-1.662H47.2a6.124,6.124,0,0,1,4.134,2.07L62.8,96.338A3.293,3.293,0,0,1,62.789,99.825Z" transform="translate(0 -75.075)" fill="#fedd00"/>
      </g>
      <path id="Trazado_3799" data-name="Trazado 3799" d="M-18433.229,14474.912h44.121l5.506,5.624,10.57,14.515v3.384l-13.736,17.821-4.2,1.437h-41.467l-3.885-2.659v-37.954Z" transform="translate(19654.148 -13916.322)" fill="#fedd00"/>
    </g>
    <text id="MSI" transform="translate(1231.999 586)" font-size="18" font-family="SourceSansPro-Semibold, Source Sans Pro" font-weight="600"><tspan x="0" y="0">MSI</tspan></text>
  </g>
</svg>
