<svg xmlns="http://www.w3.org/2000/svg" width="158" height="72" viewBox="0 0 158 72">
  <g id="PAYPAL" transform="translate(-543 -391)">
    <rect id="Rectángulo_1" data-name="Rectángulo 1" width="158" height="72" transform="translate(543 391)" fill="#aaa7ff" opacity="0"/>
    <g id="Grupo_3" data-name="Grupo 3" transform="translate(554.446 410.112)">
      <g id="Grupo_2" data-name="Grupo 2" transform="translate(0 0)">
        <g id="Grupo_1" data-name="Grupo 1">
          <path id="Trazado_1" data-name="Trazado 1" d="M37.849-88.191C36.266-90,33.4-90.766,29.736-90.766H19.1a1.522,1.522,0,0,0-1.5,1.288L13.167-61.4a.911.911,0,0,0,.207.735.911.911,0,0,0,.694.319h6.564l1.65-10.46-.052.328a1.518,1.518,0,0,1,1.5-1.288h3.12c6.129,0,10.93-2.49,12.332-9.692q.063-.319.109-.624a6.8,6.8,0,0,0-1.442-6.115" transform="translate(-13.156 90.766)" fill="#003087"/>
          <path id="Trazado_2" data-name="Trazado 2" d="M229.135-63.989c-.4,2.635-2.417,2.635-4.361,2.635h-1.107l.778-4.92a.611.611,0,0,1,.6-.517h.508c1.325,0,2.575,0,3.222.754a2.457,2.457,0,0,1,.356,2.047m-.847-6.876h-7.343a1.023,1.023,0,0,0-1.009.858l-2.967,18.826a.612.612,0,0,0,.143.492.612.612,0,0,0,.465.215h3.767a.715.715,0,0,0,.705-.6l.843-5.34a1.02,1.02,0,0,1,1-.858h2.325c4.837,0,7.629-2.339,8.357-6.979a5.653,5.653,0,0,0-.936-4.739,6.812,6.812,0,0,0-5.351-1.876" transform="translate(-124.056 79.929)" fill="#009cde"/>
          <path id="Trazado_3" data-name="Trazado 3" d="M114.248-63.991c-.4,2.635-2.417,2.635-4.361,2.635h-1.107l.778-4.92a.611.611,0,0,1,.6-.517h.508c1.325,0,2.575,0,3.222.754a2.455,2.455,0,0,1,.356,2.047m-.847-6.876h-7.343a1.022,1.022,0,0,0-1,.858L102.082-51.18a.612.612,0,0,0,.143.492.612.612,0,0,0,.465.215H106.2a1.02,1.02,0,0,0,1-.858l.8-5.079a1.02,1.02,0,0,1,1-.858h2.325c4.837,0,7.629-2.341,8.357-6.979a5.653,5.653,0,0,0-.936-4.739,6.812,6.812,0,0,0-5.351-1.876m17.047,13.637a3.92,3.92,0,0,1-3.965,3.349,2.967,2.967,0,0,1-2.361-.95,2.985,2.985,0,0,1-.551-2.469,3.935,3.935,0,0,1,3.94-3.384,2.963,2.963,0,0,1,2.344.957,3.027,3.027,0,0,1,.6,2.487m4.9-6.845h-3.515a.612.612,0,0,0-.605.518l-.153.983-.246-.356a5.008,5.008,0,0,0-4.149-1.475,8.085,8.085,0,0,0-7.848,7.072,6.639,6.639,0,0,0,1.309,5.4,5.5,5.5,0,0,0,4.428,1.787,6.732,6.732,0,0,0,4.865-2.01l-.157.977a.612.612,0,0,0,.143.494.612.612,0,0,0,.465.213h3.166a1.02,1.02,0,0,0,1-.858l1.9-12.034a.612.612,0,0,0-.143-.494.612.612,0,0,0-.466-.213" transform="translate(-61.54 79.931)" fill="#003087"/>
          <path id="Trazado_4" data-name="Trazado 4" d="M265.179-49.515a3.92,3.92,0,0,1-3.969,3.358,2.967,2.967,0,0,1-2.361-.95,2.985,2.985,0,0,1-.551-2.469,3.933,3.933,0,0,1,3.94-3.384,2.963,2.963,0,0,1,2.344.957,3.027,3.027,0,0,1,.6,2.487m4.9-6.845h-3.515a.612.612,0,0,0-.605.518l-.153.983-.246-.356A5.008,5.008,0,0,0,261.4-56.69a8.085,8.085,0,0,0-7.848,7.072,6.639,6.639,0,0,0,1.311,5.4,5.5,5.5,0,0,0,4.428,1.787,6.733,6.733,0,0,0,4.865-2.01l-.157.977a.609.609,0,0,0,.143.494.61.61,0,0,0,.465.215h3.169a1.022,1.022,0,0,0,1.009-.859l1.9-12.034a.612.612,0,0,0-.143-.494.613.613,0,0,0-.466-.213" transform="translate(-143.902 72.215)" fill="#009cde"/>
          <path id="Trazado_5" data-name="Trazado 5" d="M196.588-55.975h-3.535a1.016,1.016,0,0,0-.843.448l-4.877,7.18-2.067-6.9a1.023,1.023,0,0,0-.977-.73h-3.474a.612.612,0,0,0-.5.256.612.612,0,0,0-.082.554l3.89,11.423-3.657,5.165a.612.612,0,0,0-.046.634.612.612,0,0,0,.544.33h3.525a1.022,1.022,0,0,0,.838-.438l11.752-16.957a.612.612,0,0,0,.04-.632.612.612,0,0,0-.542-.329" transform="translate(-104.056 71.832)" fill="#003087"/>
          <path id="Trazado_6" data-name="Trazado 6" d="M295.438-70.355l-3.015,19.172a.612.612,0,0,0,.143.492.613.613,0,0,0,.465.215h3.03a1.022,1.022,0,0,0,1-.858l2.972-18.827a.612.612,0,0,0-.143-.494.611.611,0,0,0-.465-.213h-3.391a.611.611,0,0,0-.605.517" transform="translate(-165.116 79.937)" fill="#009cde"/>
          <path id="Trazado_7" data-name="Trazado 7" d="M37.849-88.191C36.266-90,33.4-90.766,29.736-90.766H19.1a1.522,1.522,0,0,0-1.5,1.288L13.167-61.4a.911.911,0,0,0,.207.735.911.911,0,0,0,.694.319h6.564l1.65-10.46-.052.328a1.518,1.518,0,0,1,1.5-1.288h3.12c6.129,0,10.93-2.49,12.332-9.692q.063-.319.109-.624a6.8,6.8,0,0,0-1.442-6.115" transform="translate(-13.156 90.766)" fill="#003087"/>
          <path id="Trazado_8" data-name="Trazado 8" d="M24.055-82.04a1.333,1.333,0,0,1,1.315-1.123h8.338a17.533,17.533,0,0,1,2.75.2,11.554,11.554,0,0,1,1.364.3,7.532,7.532,0,0,1,1.468.585,6.792,6.792,0,0,0-1.442-6.115C36.262-90,33.4-90.765,29.734-90.765H19.1a1.522,1.522,0,0,0-1.5,1.288L13.165-61.392a.911.911,0,0,0,.207.735.911.911,0,0,0,.694.319h6.567L22.282-70.8Z" transform="translate(-13.154 90.765)" fill="#003087"/>
          <path id="Trazado_9" data-name="Trazado 9" d="M47.664-71.7q-.049.312-.109.624c-1.4,7.2-6.2,9.692-12.332,9.692H32.1a1.517,1.517,0,0,0-1.5,1.288l-1.6,10.13-.456,2.876a.8.8,0,0,0,.182.644.8.8,0,0,0,.608.286h5.537a1.332,1.332,0,0,0,1.315-1.123l.054-.286,1.043-6.61.066-.365a1.332,1.332,0,0,1,1.316-1.123H39.5c5.362,0,9.56-2.178,10.788-8.479.511-2.631.246-4.832-1.107-6.375A5.294,5.294,0,0,0,47.664-71.7" transform="translate(-21.528 80.388)" fill="#009cde"/>
          <path id="Trazado_10" data-name="Trazado 10" d="M48.661-73.58q-.319-.1-.662-.17t-.7-.133a17.192,17.192,0,0,0-2.751-.2H36.209a1.329,1.329,0,0,0-1.315,1.125L33.116-61.723l-.052.326a1.517,1.517,0,0,1,1.5-1.288h3.132c6.129,0,10.93-2.49,12.332-9.692.041-.213.077-.419.109-.624a7.572,7.572,0,0,0-1.153-.486c-.1-.034-.209-.066-.315-.1" transform="translate(-23.992 81.685)" fill="#012169"/>
        </g>
      </g>
    </g>
  </g>
</svg>
