<svg xmlns="http://www.w3.org/2000/svg" width="48" height="48" viewBox="0 0 48 48">
    <g fill="none" fill-rule="evenodd">
        <path fill="#5399DB" d="M37.64 14.163c.489-3.112-.003-5.23-1.691-7.146C34.089 4.905 30.733 4 26.437 4h-12.47c-.877 0-1.624.637-1.761 1.502L7.014 38.329a1.067 1.067 0 0 0 1.057 1.233h7.698l-.531 3.359A.934.934 0 0 0 16.162 44h6.489c.768 0 1.422-.557 1.54-1.313l.065-.33 1.222-7.727.079-.426a1.559 1.559 0 0 1 1.542-1.314h.97c6.286 0 11.208-2.547 12.646-9.91.6-3.077.29-5.646-1.3-7.451-.48-.546-1.078-.998-1.775-1.366"/>
        <path fill="#142667" d="M37.64 14.163c.489-3.112-.003-5.23-1.691-7.146C34.089 4.905 30.733 4 26.437 4h-12.47c-.877 0-1.624.637-1.761 1.502L7.014 38.329a1.067 1.067 0 0 0 1.057 1.233h7.698l1.934-12.225-.061.383a1.776 1.776 0 0 1 1.756-1.501h3.659c7.186 0 12.812-2.91 14.456-11.328.048-.25.09-.491.127-.728"/>
        <path fill="#003383" d="M19.78 14.204a1.557 1.557 0 0 1 1.541-1.313h9.773c1.16 0 2.24.075 3.225.234.282.045.557.097.823.156a12.236 12.236 0 0 1 1.147.313c.484.16.935.35 1.35.569.49-3.112-.003-5.23-1.69-7.146C34.09 4.905 30.731 4 26.435 4H13.967c-.877 0-1.625.637-1.762 1.502L7.013 38.329c-.103.648.4 1.233 1.058 1.233h7.697l1.934-12.225 2.077-13.133z"/>
    </g>
</svg>
