<svg xmlns="http://www.w3.org/2000/svg" width="208.29" height="208.289" viewBox="0 0 208.29 208.289">
    <defs>
        <style>
            .cls-1{fill:none;stroke:#fe1d00;stroke-linecap:round;stroke-linejoin:round;stroke-width:2px}
        </style>
    </defs>
    <g id="Grupo_9435" data-name="Grupo 9435" transform="translate(-1519.297 -420.217)">
        <path id="Intersección_6" d="M83.114 168.067l84.954-84.954-84.954 84.954zm84.146-72.345l-71.537 71.537zm-95.113 71.511l95.087-95.087-95.087 95.087zm-9.808-1.993l102.9-102.9-102.9 102.9zm101.237-54.034l-52.369 52.369zM53.445 162.334l108.89-108.89-108.89 108.89zm-8.123-3.678L158.657 45.321 45.322 158.656zm-7.438-4.362L154.295 37.883 37.884 154.293zm-6.81-4.991L149.3 31.073 31.074 149.3zm116.67-10.464l-8.9 8.9zm-122.885 4.878l118.86-118.86-118.86 118.86zm-5.637-6.164L137.555 19.221 19.222 137.554zm-5.046-6.753L130.8 14.176 14.176 130.8zm-4.42-7.38L123.418 9.756 9.756 123.418zm-3.742-8.059L115.359 6.014 6.014 115.359zm-2.98-8.821l103.5-103.5-103.5 103.5zM.952 96.82L96.82.951.952 96.82zM0 85.971L85.971 0 0 85.971zM.63 73.54L73.54.63.63 73.54zm3.327-15.129L58.411 3.957 3.957 58.411zm12.249-24.049l18.155-18.156-18.155 18.156z" class="cls-1" data-name="Intersección 6" transform="rotate(165.02 824.678 405.582)"/>
    </g>
</svg>
