<svg xmlns="http://www.w3.org/2000/svg" width="158" height="72" viewBox="0 0 158 72">
  <g id="SANTANDER" transform="translate(-1063 -111)">
    <rect id="Rectángulo_1" data-name="Rectángulo 1" width="158" height="72" transform="translate(1063 111)" fill="#aaa7ff" opacity="0"/>
    <g id="lPromociones-" transform="translate(1067.32 134.04)">
      <g id="Android-Copy" transform="translate(0 0)">
        <g id="Banco_Santander_Logotipo">
          <path id="Shape" d="M19.652,12.126a6.031,6.031,0,0,0-.811-2.736L14.6,1.842A6.552,6.552,0,0,1,13.912,0l-.187.317a6.114,6.114,0,0,0,0,6.032l3.432,6.035a6.114,6.114,0,0,1,0,6.032l-.187.317a6.552,6.552,0,0,0-.687-1.842l-3.119-5.527-2-3.555a6.552,6.552,0,0,1-.687-1.842l-.187.317a6.114,6.114,0,0,0,0,6.032h0l3.432,6.032a6.114,6.114,0,0,1,0,6.032l-.187.317a6.552,6.552,0,0,0-.687-1.842L8.546,15.3A6.8,6.8,0,0,1,7.736,12C3.182,13.206,0,15.81,0,18.793c0,4.19,6.114,7.559,13.663,7.559S27.325,22.987,27.325,18.8C27.387,15.936,24.268,13.333,19.652,12.126ZM32.566,25.014a8.784,8.784,0,0,1,.5-2.667,11.532,11.532,0,0,0,4.679,1.015c2.37,0,3.744-.762,3.744-2.349,0-1.524-1-2.222-3.37-3.3l-1.31-.508c-2.434-1.08-4.055-2.477-4.055-5.206,0-2.984,2.059-4.889,6.176-4.889a13.929,13.929,0,0,1,4.679.762,10.116,10.116,0,0,1-.5,2.6,13.323,13.323,0,0,0-4.242-.762c-2.246,0-3.244.888-3.244,2.285,0,1.333,1,2.16,2.808,2.92l1.372.576c3.244,1.4,4.617,2.92,4.617,5.46,0,2.984-2.246,5.079-6.612,5.079a11.907,11.907,0,0,1-5.24-1.018ZM58.208,12.508v13.08H55.584L55.459,24a3.967,3.967,0,0,1-3.619,1.9c-3.37,0-5.678-2.54-5.678-6.921,0-4.572,2.434-7.237,7.174-7.237a16.008,16.008,0,0,1,4.872.762ZM55.4,22.6V14.413a9.936,9.936,0,0,0-2.059-.127c-2.932,0-4.3,1.842-4.3,4.762,0,2.667,1.061,4.572,3.557,4.572A4.846,4.846,0,0,0,55.4,22.608Zm17.28-5.777v8.762H69.872V17.333c0-2.1-.687-3.047-3.493-3.047a14.6,14.6,0,0,0-2.246.19V25.587H61.324V12.508a24.268,24.268,0,0,1,5.116-.762c4.743.062,6.241,1.905,6.241,5.079Zm7.861,6.667a5.616,5.616,0,0,0,2.183-.382c-.062.762-.187,1.65-.312,2.412a6.271,6.271,0,0,1-2.37.445c-2.745,0-4.491-1.27-4.491-4.444V7.746A8.64,8.64,0,0,1,78.358,7.3v4.954h4.491c-.062.888-.125,1.714-.249,2.477H78.359v6.412c0,1.65.811,2.349,2.183,2.349ZM95.7,12.508v13.08H93.082L92.956,24a3.967,3.967,0,0,1-3.619,1.905c-3.37,0-5.678-2.54-5.678-6.921,0-4.572,2.434-7.237,7.174-7.237A16.331,16.331,0,0,1,95.7,12.508Zm-2.87,10.1v-8.2a9.936,9.936,0,0,0-2.059-.127c-2.932,0-4.3,1.842-4.3,4.762,0,2.667,1.061,4.572,3.555,4.572A4.686,4.686,0,0,0,92.832,22.608Zm17.343-5.777v8.762h-2.87v-8.26c0-2.1-.687-3.047-3.493-3.047a14.6,14.6,0,0,0-2.246.19V25.587H98.758V12.508a24.268,24.268,0,0,1,5.116-.762c4.742.062,6.3,1.905,6.3,5.079ZM124.462,7.3V25.589h-2.621l-.125-1.65a3.925,3.925,0,0,1-3.681,1.968c-3.37,0-5.678-2.54-5.678-6.921,0-4.572,2.434-7.237,7.174-7.237a11.471,11.471,0,0,1,2.121.19V7.619a10.308,10.308,0,0,1,2.809-.318Zm-2.807,15.307V14.544a13.52,13.52,0,0,0-2.246-.253c-2.808,0-4.117,1.778-4.117,4.762,0,2.667,1.061,4.572,3.555,4.572A5.016,5.016,0,0,0,121.656,22.608ZM138.686,20H129.64c.374,2.349,1.685,3.429,4.242,3.429a9.92,9.92,0,0,0,4.491-1.015c-.125.762-.249,1.778-.432,2.6a10.045,10.045,0,0,1-4.176.825c-4.742,0-6.987-2.667-6.987-7.111,0-3.874,1.747-6.984,6.238-6.984,4.055,0,5.8,2.667,5.8,5.969A13.287,13.287,0,0,1,138.686,20Zm-9.046-2.412H136c0-2.16-1.123-3.429-3.057-3.429-2.058.062-3.119,1.205-3.306,3.427Zm18.968-5.652a13.157,13.157,0,0,1-.249,2.477,21.225,21.225,0,0,0-2.121-.127c-.687,0-1.372.063-2.059.127V25.587h-2.808V12.508a15.908,15.908,0,0,1,4.8-.762C146.985,11.808,147.983,11.808,148.608,11.936Z" transform="translate(0 0)" fill="#ea1d25"/>
        </g>
      </g>
    </g>
  </g>
</svg>
