<svg id="share-24px" xmlns="http://www.w3.org/2000/svg" width="24" height="24" viewBox="0 0 24 24">
  <path id="Trazado_4001" data-name="Trazado 4001" d="M0,0H24V24H0Z" fill="none"/>
  <path id="Trazado_4002" data-name="Trazado 4002" d="M17.732,15.925a2.849,2.849,0,0,0-1.925.762l-7-4.1a3.259,3.259,0,0,0,.088-.692A3.259,3.259,0,0,0,8.8,11.2l6.924-4.065a2.923,2.923,0,0,0,2,.8,2.967,2.967,0,1,0-2.946-2.967,3.259,3.259,0,0,0,.088.692L7.95,9.724a2.923,2.923,0,0,0-2-.8,2.967,2.967,0,0,0,0,5.934,2.923,2.923,0,0,0,2-.8l6.993,4.114a2.809,2.809,0,0,0-.079.643,2.868,2.868,0,1,0,2.868-2.888Z" transform="translate(0.161 0.107)" fill="#00be32"/>
</svg>
