<svg xmlns="http://www.w3.org/2000/svg" width="40" height="40" viewBox="0 0 40 40">
  <g id="Grupo_8939" data-name="Grupo 8939" transform="translate(5130 11277)">
    <rect id="Rectángulo_3440" data-name="Rectángulo 3440" width="40" height="40" transform="translate(-5130 -11277)" fill="#6b4cba" opacity="0"/>
    <g id="shield" transform="translate(-5156.908 -11273)">
      <g id="Grupo_8630" data-name="Grupo 8630" transform="translate(33.908 0)">
        <path id="Trazado_3800" data-name="Trazado 3800" d="M60.741,8.217c-.038-.84-.038-1.642-.038-2.443a1.125,1.125,0,0,0-1.145-1.145c-4.772,0-8.4-1.374-11.414-4.314a1.178,1.178,0,0,0-1.6,0C43.524,3.254,39.9,4.629,35.126,4.629a1.125,1.125,0,0,0-1.145,1.145c0,.8,0,1.6-.038,2.443-.153,8.017-.382,19.011,13.018,23.63l.382.076.382-.076C61.085,27.228,60.894,16.272,60.741,8.217ZM46.426,19.326a1.232,1.232,0,0,1-.8.305h-.038a1.074,1.074,0,0,1-.8-.382l-3.55-3.932,1.718-1.527,2.787,3.092L51.923,11l1.565,1.68Z" transform="translate(-33.908 0)" fill="#333"/>
      </g>
    </g>
  </g>
</svg>
