<svg xmlns="http://www.w3.org/2000/svg" width="40" height="40" viewBox="0 0 40 40">
  <g id="Grupo_9074" data-name="Grupo 9074" transform="translate(-1786 7581)">
    <rect id="Rectángulo_3479" data-name="Rectángulo 3479" width="40" height="40" transform="translate(1786 -7581)" fill="#7191be" opacity="0"/>
    <g id="Symbols" transform="translate(1789.967 -7575.711)">
      <g id="icn_entrega-tienda" data-name="icn/entrega-tienda">
        <path id="entrega-tienda" d="M18.428,29.449h9.787v-6.01H18.428ZM3,16.724H34.045v1.566a.738.738,0,0,1-.732.739l-.747.007V31.61a1.479,1.479,0,0,1-1.478,1.478H14.2V23.439H8.83v9.649H5.957A1.479,1.479,0,0,1,4.478,31.61V19.04l-.743,0A.739.739,0,0,1,3,18.3ZM31.827,7.99H5.217V6.478A1.479,1.479,0,0,1,6.7,5H30.349a1.479,1.479,0,0,1,1.478,1.478Zm-10.942,1.4.6,5.925H15.655l.6-5.925Zm-15.669,0H8.87l-1.2,5.924H3.012L5.217,9.411Zm21.614,0,1.206,5.925H22.9l-.6-5.925Zm-11.987,0-.6,5.925H9.107l1.206-5.925Zm13.43,0h3.553v.051l2.2,5.873H29.48Z" transform="translate(-3 -5)" fill="#333" fill-rule="evenodd"/>
      </g>
    </g>
  </g>
</svg>
