<svg xmlns="http://www.w3.org/2000/svg" width="40" height="40" viewBox="0 0 40 40">
  <g id="Grupo_9079" data-name="Grupo 9079" transform="translate(-1187 7677)">
    <rect id="Rect치ngulo_3480" data-name="Rect치ngulo 3480" width="40" height="40" transform="translate(1187 -7677)" fill="#7191be" opacity="0"/>
    <path id="Sustracci칩n_1" data-name="Sustracci칩n 1" d="M17.7,32.4V14.642c0-.069,0-.139-.007-.214a.859.859,0,0,1,.529-.6l.456-.176.149-.055,13.6-5.259V26.635a.1.1,0,0,1-.057.09L17.7,32.4Zm-1.544,0h0L1.481,26.733a.1.1,0,0,1-.056-.09V8.34l6.559,2.535v7.8l1.626.82V11.5L15.025,13.6c.044.02.092.038.148.057l.451.174a.853.853,0,0,1,.505.6,2.174,2.174,0,0,0-.009.221h.032V32.4Zm.772-20.009a3.758,3.758,0,0,1-1.226-.205l-5.527-2.136,14.569-5.63,6.752,2.61L18.148,12.189A3.763,3.763,0,0,1,16.925,12.394ZM8.479,9.4h0L2.386,7.043,16.924,1.4l5.547,2.144L9.552,8.575A2.441,2.441,0,0,0,8.479,9.4Z" transform="translate(1190.575 -7673.402)" fill="#333"/>
  </g>
</svg>
