<svg xmlns="http://www.w3.org/2000/svg" width="48" height="48" viewBox="0 0 48 48">
    <path fill-rule="evenodd" d="M39.506 14.373C36.816 10.798 33.396 7 29.355 7H6.885a2.914 2.914 0 0 0-2.914 2.914c-.009.13-.009.26 0 .389v6.848H20.68v-3.623h.165l5.557 5.615v.36l-5.557 5.604h-.165v-3.536H3.971v9.443c0 3.108 2.04 3.74 3.245 3.74h1.613a5.829 5.829 0 0 0 11.598 0h7.976a5.829 5.829 0 0 0 11.657 0h1.535a3.274 3.274 0 0 0 3.176-3.274v-5.77c0-3.983-3.71-9.355-5.265-11.337zM14.59 37.503a2.914 2.914 0 1 1 0-5.829 2.914 2.914 0 0 1 0 5.829zm19.584 0a2.914 2.914 0 1 1 0-5.829 2.914 2.914 0 0 1 0 5.829zm.408-17.204h-.34a.835.835 0 0 1-.476-.262 1.846 1.846 0 0 1-.388-1.137c-.01-.09-.01-.182 0-.272v-7.227l.553.524A35.098 35.098 0 0 1 37 15.364l.049.078.874 1.097a29.143 29.143 0 0 1 2.069 3.09l.068.136c.065.13.133.246.204.35l-5.683.184z"/>
</svg>
