<svg xmlns="http://www.w3.org/2000/svg" width="48" height="48" viewBox="0 0 48 48">
    <g fill-rule="evenodd">
        <path d="M35.675 6.412l.428 3.936h-4.134l.427-3.936h3.279zm-9.37 3.936h-3.297l1.564-3.924v-.012h2.588l-.854 3.936zM39.89 6.412l.854 3.936h-3.64l-.426-3.936h3.212zm-8.495 0l-.427 3.936h-3.638l.853-3.936h3.212zm9.516 0h2.519v.036l1.56 3.9h-3.224l-.855-3.936zm2.519-1.57H24.572v-.79c0-.58.468-1.052 1.047-1.052H42.38a1.05 1.05 0 0 1 1.048 1.052v.79zM41 20.624v-4.729h-5.998L35 20.624h6zm-17.992-8.677L45 11.946v1.053a.525.525 0 0 1-.519.526l-.529.005v8.417A1.05 1.05 0 0 1 42.904 23h-9.278l-2.665-7.988-6.729.036v-1.675h-.567c-.356 0-.575-.25-.657-.751v-.675z"/>
        <path d="M19.708 22.142l.562 5.164h-5.448l.563-5.164h4.323zm-12.35 5.164H3.01l2.06-5.148v-.016h3.413l-1.126 5.164zm17.904-5.164l1.126 5.164H21.59l-.562-5.164h4.233zm-11.198 0l-.562 5.164H8.704l1.127-5.164h4.233zm15.865.049l2.054 5.115h-4.248l-1.126-5.164h3.32v.049zM17.5 40.788h9.329v-6.205H17.5v6.205zM3 29.405l29-.001v1.38a.69.69 0 0 1-.684.69l-.697.007v11.043c0 .762-.619 1.38-1.381 1.38H13.353l.004-9.32-5.2-.013.025 9.334h-2.42a1.381 1.381 0 0 1-1.381-1.38v-11.04l-.693-.003a.69.69 0 0 1-.688-.69v-1.387zm26.929-9.322H5.07v-1.035c0-.763.619-1.381 1.381-1.381h22.096c.762 0 1.38.618 1.38 1.38v1.036z"/>
    </g>
</svg>
