<svg xmlns="http://www.w3.org/2000/svg" width="40" height="40" viewBox="0 0 40 40">
  <g id="Grupo_8929" data-name="Grupo 8929" transform="translate(5236 11380.268)">
    <rect id="Rectángulo_3482" data-name="Rectángulo 3482" width="40" height="40" transform="translate(-5236 -11380.268)" fill="#7191be" opacity="0"/>
    <g id="Articulo-de-Regalo" transform="translate(-5230.704 -11375.223)">
      <g id="Group-20" transform="translate(0 0)">
        <path id="Fill-1" d="M4.369,6.356,3.3,6.771v6.674H14.723L15.48,9.3l6.388,6.213L15.634,22.2l-.846-.5-.021-3.468H3.3v8.32l1.236.988H6.787l2.624-3.513,2.862-.044L14.9,27.539h7.567L25.217,23.9l2.689.065,2.927,3.579,2.971-.5.738-2.722-.174-5.268-1.444-2.461-6.356.033-.9-1.835.162-7.376-2.3-1.049Z" transform="translate(-2.188 -5.185)" fill="#333" fill-rule="evenodd"/>
        <g id="icn_envio-outline" data-name="icn/envio-outline" transform="translate(0)">
          <path id="envio-outline" d="M31.121,26.4h1.36a1.159,1.159,0,0,0,1.141-1.16V20.55a8.575,8.575,0,0,0-.831-3.225h-5.47a2.325,2.325,0,0,1-2.306-2.343V7.468a4.66,4.66,0,0,0-2.338-.708H4.6A.829.829,0,0,0,3.975,7a.857.857,0,0,0-.247.628v4.822H14.094V10.374a1.71,1.71,0,0,1,.416-1.286,1.654,1.654,0,0,1,1.211-.565,1.835,1.835,0,0,1,1.384.7l4.964,4.893a1.715,1.715,0,0,1,.508,1.358,1.743,1.743,0,0,1-.524,1.112l-5.175,5.5a1.738,1.738,0,0,1-1.243.54,1.551,1.551,0,0,1-1.12-.479,1.6,1.6,0,0,1-.444-1.149V18.707H3.751v6.141c0,1.072.344,1.549,1.126,1.549H6.229a4.675,4.675,0,0,1,9.132,0h6.629a4.675,4.675,0,0,1,9.132,0Zm-2.193,3.166a3.2,3.2,0,0,0,.754-2.07,3.127,3.127,0,1,0-6.254,0,3.194,3.194,0,0,0,.828,2.154,2.992,2.992,0,0,0,2.3.865A3,3,0,0,0,28.928,29.562Zm-7.049-1.7H15.54a4.722,4.722,0,0,1-9.422,0H4.861c-.969,0-2.611-.516-2.611-3.058V18.755a1.576,1.576,0,0,1,1.564-1.589H15.54v3.845c0,.119.039.119.086.119a.326.326,0,0,0,.2-.1l5.191-5.561a.184.184,0,0,0,0-.294l-5.035-4.909s-.219-.222-.3-.222-.141.079-.141.342v3.6H3.814A1.576,1.576,0,0,1,2.25,12.4V7.633A2.364,2.364,0,0,1,4.6,5.25H22.678c3.252,0,6,3.106,8.17,6.029,1.251,1.621,4.237,6.013,4.237,9.27v4.719a2.657,2.657,0,0,1-2.517,2.6H31.332a4.606,4.606,0,0,1-.927,2.351,4.664,4.664,0,0,1-3.849,2.042A4.722,4.722,0,0,1,21.879,27.866ZM9.055,30.134a3.031,3.031,0,0,0,1.732.457A3.035,3.035,0,0,0,12.717,30a3.19,3.19,0,0,0,1.2-2.506,3.127,3.127,0,1,0-6.254,0A3.188,3.188,0,0,0,9.055,30.134ZM26.5,8.564v6.417a.828.828,0,0,0,.821.834h4.732a27.835,27.835,0,0,0-2.34-3.607A25.079,25.079,0,0,0,26.5,8.564Z" transform="translate(-2.25 -5.25)" fill="#333" fill-rule="evenodd"/>
        </g>
        <circle id="Oval" cx="4.237" cy="4.237" r="4.237" transform="translate(3.972 17.741)" fill="#333"/>
        <circle id="Oval-2" data-name="Oval" cx="1.589" cy="1.589" r="1.589" transform="translate(7.024 20.919)" fill="#fff"/>
        <circle id="Oval-Copy-3" cx="4.237" cy="4.237" r="4.237" transform="translate(20.389 17.741)" fill="#333"/>
        <circle id="Oval-Copy-4" cx="1.589" cy="1.589" r="1.589" transform="translate(22.633 20.919)" fill="#fff"/>
      </g>
    </g>
  </g>
</svg>
