<svg xmlns="http://www.w3.org/2000/svg" width="48" height="48" viewBox="0 0 48 48">
    <g fill="none" fill-rule="evenodd">
        <path fill="#FFF" d="M41.12 40H6.88A3.88 3.88 0 0 1 3 36.119V11.88A3.88 3.88 0 0 1 6.88 8h34.24A3.88 3.88 0 0 1 45 11.88v24.239A3.88 3.88 0 0 1 41.12 40"/>
        <path fill="#0B79D3" d="M41.12 8H6.88A3.88 3.88 0 0 0 3 11.88v24.239A3.88 3.88 0 0 0 6.88 40h34.24A3.88 3.88 0 0 0 45 36.119V11.88A3.88 3.88 0 0 0 41.12 8m0 1.9c1.092 0 1.98.889 1.98 1.98v24.239a1.982 1.982 0 0 1-1.98 1.981H6.88a1.982 1.982 0 0 1-1.98-1.981V11.88c0-1.091.888-1.98 1.98-1.98h34.24"/>
        <path fill="#0B79D3" fill-rule="nonzero" d="M30.018 26.993a1 1 0 0 1 2 0v2a1 1 0 0 1-2 0v-2zM34.998 26.993a1 1 0 0 1 2 0v2a1 1 0 0 1-2 0v-2zM10 33.987a1 1 0 0 1 0-2h12a1 1 0 0 1 0 2H10zM10 27.993a1 1 0 0 1 0-2h12a1 1 0 0 1 0 2H10z"/>
        <path fill="#0B79D3" d="M4.9 21h38.2v-6H4.9z"/>
    </g>
</svg>
