<svg xmlns="http://www.w3.org/2000/svg" width="64" height="32" viewBox="0 0 96 48">
    <g fill="none" fill-rule="evenodd">
        <path fill="#00529B" d="M38.616 10L34 38h7.38L46 10zM68.775 11.197c-1.473-.55-3.782-1.137-6.666-1.137-7.349 0-12.527 3.671-12.57 8.932-.042 3.89 3.696 6.06 6.517 7.355 2.895 1.326 3.868 2.172 3.854 3.357-.018 1.814-2.312 2.643-4.45 2.643-2.977 0-4.558-.41-7-1.42l-.96-.43-1.043 6.059c1.738.755 4.95 1.41 8.285 1.444 7.819 0 12.894-3.63 12.952-9.248.028-3.079-1.954-5.423-6.245-7.354-2.6-1.252-4.191-2.088-4.175-3.356 0-1.125 1.348-2.328 4.26-2.328 2.432-.037 4.194.488 5.567 1.037l.666.312 1.008-5.866M78.677 28.003c.615-1.56 2.963-7.567 2.963-7.567-.044.072.61-1.567.986-2.583l.503 2.334 1.722 7.816h-6.174zm9.171-17.447h-5.747c-1.78 0-3.113.482-3.895 2.245L67.16 37.607h7.81s1.277-3.335 1.566-4.067c.854 0 8.44.011 9.526.011.222.947.904 4.056.904 4.056h6.902l-6.02-27.05zM28.126 10.55l-7.282 18.459-.776-3.752c-1.355-4.324-5.579-9.01-10.301-11.354l6.658 23.672 7.87-.009 11.71-27.016h-7.88"/>
        <path fill="#F3AA00" d="M14.089 10.533H2.095L2 11.096c9.331 2.24 15.505 7.656 18.068 14.161L17.46 12.818c-.45-1.713-1.756-2.225-3.371-2.285"/>
    </g>
</svg>
