<svg xmlns="http://www.w3.org/2000/svg" width="60" height="60" viewBox="0 0 100 100">
  <g id="Grupo_9033" data-name="Grupo 9033" transform="translate(-20997 6777)">
    <circle id="Elipse_88" data-name="Elipse 88" cx="50" cy="50" r="50" transform="translate(20997 -6777)" fill="#46c655"/>
    <path id="Trazado_3993" data-name="Trazado 3993" d="M317.539,324.765c-.743-1.652-1.525-1.685-2.232-1.714-.578-.025-1.24-.023-1.9-.023a3.644,3.644,0,0,0-2.645,1.241,11.119,11.119,0,0,0-3.472,8.272c0,4.88,3.555,9.6,4.05,10.259s6.862,11,16.944,14.972c8.379,3.3,10.084,2.647,11.9,2.482s5.868-2.4,6.7-4.715.827-4.3.579-4.716-.909-.661-1.9-1.157-5.868-2.9-6.778-3.227-1.571-.5-2.232.5-2.561,3.226-3.14,3.887-1.157.746-2.149.25a27.13,27.13,0,0,1-7.976-4.923,29.876,29.876,0,0,1-5.518-6.869c-.579-.992-.062-1.529.436-2.024.445-.444.992-1.158,1.488-1.737a6.8,6.8,0,0,0,.991-1.654,1.826,1.826,0,0,0-.083-1.738C320.349,331.631,318.421,326.726,317.539,324.765Z" transform="translate(20719.711 -7069.028)" fill="#fff" fill-rule="evenodd"/>
  </g>
</svg>
