<!-- Generated by IcoMoon.io -->
<svg version="1.1" xmlns="http://www.w3.org/2000/svg" width="32" height="32" viewBox="0 0 32 32">
<title>menu</title>
<path d="M25.59 11.76h-19.18c-0.731-0.063-1.301-0.673-1.301-1.415s0.57-1.352 1.296-1.415l0.005-0h19.18c0.731 0.063 1.301 0.673 1.301 1.415s-0.57 1.352-1.296 1.415l-0.005 0z"></path>
<path d="M25.59 17.41h-19.18c-0.779 0-1.41-0.631-1.41-1.41s0.631-1.41 1.41-1.41v0h19.18c0.779 0 1.41 0.631 1.41 1.41s-0.631 1.41-1.41 1.41v0z"></path>
<path d="M25.59 23.070h-19.18c-0.731-0.063-1.301-0.673-1.301-1.415s0.57-1.352 1.296-1.415l0.005-0h19.18c0.731 0.063 1.301 0.673 1.301 1.415s-0.57 1.352-1.296 1.415l-0.005 0z"></path>
</svg>
